<svg viewBox="550 300 300 350" xmlns="http://www.w3.org/2000/svg" fill="none">
  <style>
    .state-highlight { transition: opacity 0.3s; }
    .state-highlight:hover { opacity: 0.8 !important; }
    .state-label { font-family: system-ui, sans-serif; font-weight: 700; pointer-events: none; }
  </style>
  <path class="state-highlight" d="M670.4 475.6l-0.6 2.6 0 2 0.7 0.9 1.5 0.7 1 0.6 1.3 1.6 0.1 0.5 1.9 1.8 0.3 0.5 0.1 1-0.2 0.6-1.9 1-0.5 0.4-1.1 2.6-0.5 0.5-1.1-0.2 0.7 1.1 2.1 0.6-0.1 1.2-0.4 0.4 0.9 0.6-0.4 1.9 0.3 0.7-0.6 0.5-0.1 0.7-0.8 0-0.6 0.4-0.8-0.3-0.5-0.6-0.5 0.5 0.2 1.7-0.1 0.9 0.7 0.9-1 1.4 0 0.7 0.3 0.5 0 0.6-1.2 1.9-0.2 1.1-1 0.6-0.6-0.2-0.1 0.9-0.9 0.8-1.1 0-0.4 1.3 1.2 0.3 0.8 1.1-0.2 0.9-1.7-0.1-0.4-0.3-1.6 0 0.2 0.5 0.6 0.6-0.8 0.3-0.4 0.7 0 0.7-1 0-0.6-0.6-0.9-0.5-0.2 1.2 0.5 0.1-0.5 1.1 0.6 0.2-0.2 0.9-1 0.4-0.8-0.2-0.3 0.5 0.6 0.4-0.6 0.6-1.7-0.9-1.2-0.3-0.6 0.5-0.8-0.3 0.6-1-2 0-1-0.4-0.4 0.6 0.5 1.1 0.7 0.4-0.3 0.6 1.1 0.5-0.2 0.8 0.3 1.7-1 0.5-0.2-1-0.5 0.1 0.1 1.6 0.3 0.7-0.3 0.4-0.9 0 0.1-1.1-1 0.6-0.2-0.6-1.8-0.4-0.2 0.6 0.8 1 0.4 0.2-0.6 0.9-1.4-0.2-1.7-0.6-0.8-0.8-1.1-0.5-1.3-0.5-0.7 0.8-0.6-0.4 0-0.4-1-0.6-0.7 0.7 0.2 0.7-0.7 0-0.6 0.8-0.8 0.4-0.6-0.1-0.1 0.6 0.6 0.8 0 1.2-0.4 0.2-0.5 1.5 0.1 0.4-1.9 0.4-0.2-0.6-0.7-0.1-2.1 0.5-2 0.8-2.1 1.2-1.7-0.2-1.2 0.1-1.3 1.6-0.9 0.2 0.1 0.4-0.9 1.1 0.4 0.8-0.4 0.3-0.2 1.9-0.8 0.2-0.9 0.5 0.4 0.7-0.4 0.2-0.6-0.3-0.1-0.4-1.2 0.2-0.7-0.1-0.1-0.8-0.6-0.1-0.9-0.6-1.2 0 0.4-1-0.4-0.9 0.3-0.9-0.5-0.7-1.2-0.1-1 0.2 0-0.4-1.2-0.2-0.9 0.8 0 0.4 0.7 1.2 0.3 1.1-0.7 0.1-2.8 1.2-1.1-0.6-1.1-0.2-0.5 0.9 0.1 1.6 0.6 0 0.6 1.2-1.1 0.4 0.2 1.3-0.3 1-1 0.9-0.2 0.6 0.3 2.7 0.7-0.1 0.7 0.8 0 0.5 0.8 0.4 0.5 0.7 1 0 0.3-0.3 1-0.3 1.9 0.1 0.4 0.5-0.2 0.6 1.6 0.8 0.9-0.1 0.7 0.5-0.1 0.7 0.9 0.8 0.5 1 0.9-0.1 0.4 0.9 1.6-0.1 0.7-0.6 1.8 0.8 0.9-0.3 0.7 0.2 0.4 0.6 0.8-0.7 1.6 0.3 1.2-0.1 0.5 0.8 0.8-0.5 0.1 0.7-0.7 0.7-0.7-0.2-0.4 0.5-0.5-0.4-0.4 0.5-0.8 0.2-0.1 0.4 1 0.7-0.4 0.5-0.1 0.9-0.5 0 0 1.1-0.4 0.8-0.2 1.2 1.3 0.6 0.9 1.4 2.4 0.4 1 0.8 1.3 0.6 0.7 0.7-0.1 2.1 0.4 0.2 0.2 0.6 0.7 0.1 1.1-0.3 1.7 0.3 0.3 0.8 0.7 0.3 0.2 0.9 0 1.6-1.3-0.2-0.2 0.4 0.6 1.8 1.4 0.2 1.3 0.7-0.1 1-0.4 1.1 0 0.6 1.5 0.9 0.6 0.7-0.1 1.1-1.3-0.3-1-0.1-0.8 0.4 0.5 0.5-0.7 0.7-1.5 0.4-0.8-0.3-1.4-0.1-0.4-0.7-0.8 0.1 0-1-1.1-0.5-0.8-0.2-0.4-0.6-0.9 0.1-1-0.3 0-0.6-0.5-0.2-0.3-0.6-1.4 0.7-0.7-0.1-0.5 0.7-1.7-1.2-0.7-0.3-0.5-0.7-0.5-0.3-0.2-0.7-1.1-1.2-0.2-0.8-0.5 0.2-1.6-0.3-0.6-0.8-1.9-0.3-1.5-0.4-1.1-2-1.1-0.7-0.7 0.7 0.4 0.3-1.1 1-0.9 0.3-0.1 0.7-0.5 0.9 1.4 1.3 0.5-0.1 0.4 1.6-0.1 0.7-0.8 0.9 0.9 0.3-0.5 0.5 0.4 0.4-1.1 1.4-0.5 0.9 0.8 1 0.8 0.6 0.3 0.5-1.1 2 0.3 0.7-0.8 1.1-0.1 0.4-1.1 1.9-0.5 0-0.6 0.6-0.6 1-1.8 0-2-0.1-0.8-0.4-0.1-0.7 0.8-1-0.3-0.5 0.6-1 0.9 0.3 0.5-0.3-0.9-1.2-0.4 0.4-1.2 0.5-0.4 0.6-0.8 0.4-1.1 0.1-0.3 0.3-1.2-1.6-0.5 0.3-1.4 0.3-0.3-0.2-1.5-0.5-1.1-0.7-0.6-0.1-1-0.7-1.6-0.8-1.6 0.1-0.1 1.1-1.3-0.1-1.7 1.7-1.1 2.5-0.4 0.4-0.5-0.3-0.1-1.2-2.4-1.2-0.8 0.3-0.6-0.7-0.1-0.4-1-0.4-0.8-0.1-0.9 0.2-0.6 0.9-0.5 0.1-0.2-0.5 1.5-0.8 0.2-0.9-0.2-0.6 0.9-1-0.1-0.2 0.7-1.6 0.2-0.8-0.1-0.8 1.2-0.7 0.3-0.8-1-0.1 0.2-0.9-0.6-0.3 0.3-1.1-0.3-1.3-0.4-0.4-0.2-0.8 0.5-0.4 0.1-0.6-0.8-0.2-3.1 1.3-0.3-0.3-1.2 0.6-0.3 0.6-0.9 0.1-0.1-1-1.4 0.6-0.8-0.2-0.4-0.4-1.7 0-0.3 1.1-2.8 0-1-0.6-2 0.3-1 0.2-1.5 0-0.9 0.5 0 0.7-0.9 0.2-0.7 0.5 0 0.5-1.1 0.3-0.8-0.2-1.6 0.4-1.2 0-0.8-0.4-0.7-0.9-1.8 0-0.3-0.4-1.1-0.6-0.5-0.8-0.1-0.9 0.1-0.8-1.1-0.2-0.9-0.6-0.7-0.8-1.9-0.4-0.1-0.7 0.2-1.1 0.5-0.6 1-0.3 1.1-1.5 2.3 0 1.1-0.5 0.5-0.6 0.6 0 0.6-0.9-0.2-1.7 1.2-1.1 0.9 0.1 0.1-0.9 0.7-0.5 0.3-0.6 0.1-1.2 0.3-0.4 0.9 0 0.7-0.5 0-0.9 0.4-1.5-0.4-0.5-0.2-0.9-1.4-0.1-0.8 0.4-1 0.2-0.3-0.6-0.6 0.3-0.5-0.4-0.7 0.2-0.7-1.1 0.1-0.4-0.7-0.2-0.3 1-0.1 0.9-0.6 0.2-0.2-0.9-0.6-1.5 0.2-1.3-0.2-0.8-0.4 0-0.9-0.9-0.7 0.1-1.1-1.1-0.2-0.6 0.5-1.2 0.4-0.4-0.2-1.7 0.5-1.9-0.1-0.6 0.3-0.8-0.7-0.8-0.2-0.8-0.8-0.1-0.5 0.9-0.8-0.3-0.5-0.5 0-0.7 0.4-1.3-0.3-0.7 0.9-1.7 0.4-0.3 0.5-1.6 0.1-0.8-0.2-1.3-0.6-0.8-0.9-0.4-1.3 0.3-0.3 1.1 0.2 1.2-3.9-0.9-0.5 0.1-1.1-0.6-0.3-0.8-0.6-0.2 0.1-0.8-1.2-1.3 0.6-0.8-0.1-1.9-0.6-0.6-0.1-0.7-0.5-0.7 0-0.4-0.8 0-0.5-0.3 0-0.6-1.9-0.4-0.7-0.3-0.4-1-0.7-0.1-0.4-0.9 0.1-0.7-0.9-1.2-0.2-1.3 0.1-0.9-1.1-0.5-1-0.1-0.5-0.5-0.3-1.1-0.9 0.1-0.5-0.7-1.3 0.1-0.8-0.1 0.9-1 0.3-1.1 0.7-1.7-0.1-1.1 0.9-1.3-0.2-1-0.7-0.8 0.9-0.9 1.1-0.4 0.3-0.9-0.5-1.2-1-0.3 0-0.9-0.6-0.7 0.4-0.9 0-0.8 1.1-0.5 2.5-0.5 1.5 0 2 0.5 2.8-0.1 1.1 0.4 1.1-0.2 1.8-0.7 2-0.3 0.3 0.2 2.1-0.6 1-1 0.5-0.8 0.6-1.6 1.1 0.4 0.8 0.6 0.5 1.3 0.4 0.3 0.2 0.9 0.4 0.5 0 1.1 0.7 0.8 1-0.9-0.1-0.9 0.3-0.4 0.6 0.3-0.3 0.6 0.8 0.2 0.1-0.5-0.3-0.6 1.7-0.4 1.2 0.5 0.4-0.1 0-0.9 0.8 0 0.9 1.6 0.3 0.7-0.2 0.5-0.9 0.3-0.3 0.6 0.2 0.6 0.8 0.1 0.5 0.6-0.2 0.8 0.4 0.5 0.9 0.4 0.7-0.1 0.4 0.8 0.9 0.3-0.1 1.1 1.2-0.3 0.4 1.1 1 0.8 0.8-1.7 0.1-1.6 0.9 0.1 0.6-0.4-0.2-0.5 0.5-0.6 0.9 0.4 0.7 0 1.3 0.3 0.3-0.7 0-0.7 0.4-0.9 0.9-0.6 0.7-0.1 0.6-0.8 1.2-0.4 0.2-0.4 1.2-0.3 0.4 0.5-0.1 1.5 1.2 0.5 0.6-0.2-0.1 1.5 0.7 1.1 0.2 0.8 0.7-0.2 0.8 0.2 0.7-0.1 0.7-1.4 1.5-0.5 0.7 0.4 0.5-0.8 0.2 1.1-0.3 0.8 0.9 0.2 0.8-1.1 1.1-0.3 0.7-0.4-0.5-1.3 1.7-0.4 0.7 0.1 1.1-1 0.9 0-0.1-0.8 0.6-0.3 0.7 0.1 2.2-0.3 0.7-0.5 1.1 0.4 2-0.6 0.4 0.8 1-0.1 0.2-0.7 1-0.5-0.3-0.7 0.6-0.7 0.7 0.2 0.3 0.4 1.3 0.3 0.7-0.1 0.2-1.5-0.4-1.1 0-0.9-0.4-0.5 1.1-0.3 0.8-1.3 0-1 0.2-0.9 0.4-0.3 0.5-1.3 1 0.4 0.4 0.5 1.1 0.2 0.6-0.6 1.7 0.3 1.2 1.8 1.3 0.8 0.7 0 0.2-0.6 0.8-0.1 0.2-0.6 1.4-0.4 0.6 1 1.4 0.6 0.7 1.1 0.3 1.1-0.6 1.3 0.3 1.1 0.9 0.5 0.5 0.6 1.7-0.3 0-0.8 1.1 1 1.5 0 0.9 0.4-0.5 0.6-0.1 1 0.4 0.9-0.7 1.2 0.3 0.7 0.6 0.7 1.2-0.1 0.7 1 0.8 0.6 0.6 0.8 1.1 0.4 0.5-0.3 0.2-0.7-0.1-1 0.8-0.2 0.1-0.5 0-1.7 0.5-1.2 0.6-0.7 0.8 0 0.3-0.9 0.9-0.5 0.1-0.5 0.5-0.5 1.6 1.2 0.7 0.3 1.8-0.7 0.4 0.1 0.5-0.5 0.3-1 1.3 0 0.4 0.8 0.1 1.1 1-0.1 0.6 0.6 0.7-0.6 1.1 0.9-0.3-1.6 1.3-1.7 1 0 1.5 0.9 1.4 0-0.2-0.6 0.3-1.8 0.6-0.9 0.4-1.1-0.3-0.8 0.4-0.5-0.1-0.8 0.4-0.7-0.6-0.4 1-1.4 1.4-0.6 0.4-0.9-0.4-1.2 0.2-2.7-0.3-0.8 1.1-2 0.4-0.1 0.8-0.9 0.7 0.2 0.3-0.5 0.6-0.2 0.4 0.4 0.7 0.2 0.2-1.8 0.4-0.5 0.5-2.8 1.5 0.6 0.3-0.6 0.5-0.2 2.2 1.2 0.6 0.1 0-1.8 0.8-0.9-0.5-1.1 1.1 0.1 0.4 0.4 0.4-0.5 0.4-1.4 0.6-0.1 1.4 0.9 0.6-0.2 0.9 0.3 1.1-0.1 0.3 0.3 0 0.8 0.5 0.4 0 0.6 2.6 0.3 0.2 1z" fill="#6366F1" opacity="0.7" stroke="#6366F1" stroke-width="2" />
  <path class="state-highlight" d="M681.2 425.7l0.9 0.9 1.2-0.4 0.1-0.6 0.6-0.2 0.7 0.3 0.8-0.6 0.1 0.7-1.4 0.9-0.5 0.6 0.5 0.8 1 0.2 0.2 0.8 0.5-0.1 0.3 0.6 0.1 0.7-0.8 0.8 0 0.3 0.5 0.4 0.3 0 0.5-0.1 0.4 0.7 0.3 0.1 0 0.2-0.4 0.2-0.2 0.6-0.1-0.1-0.1-0.1-1.2 1-0.1 0.5-0.2 0.3-0.3 0.3-0.3 0.1-0.7 0.1-0.3 0.5-0.4 0.2-0.2 0-0.7 0.5-0.4 0.7-0.2-0.1-0.1 0.2-0.4 0.3-0.1 0.1-0.3 0.2-0.1 0.2-0.1 0.3-0.5 0.3-0.1 0.4-0.4 0.1-0.7-0.2-0.1 0.3-0.8 0.6 0.1 0.5-0.3-0.1-0.3 0.1-0.5-0.7-0.6 0.4 0.1 0.4 0 0.3 0 0.2 0.1 0.6-0.5 0.3 0.5 0.4 0.1 0.3-0.2 0.1-0.3-0.1-0.7 0-0.2 0.6-0.4-0.3-0.1-0.5-0.8 0.4-0.1-0.1-0.1 0.4-0.4 0.2-0.9 0.8-0.3 0.5-0.3 1.1-0.2 0.4 0 0.3 0.1 0.8-0.1 0.4-0.1 0.2 0.1 0.2 0 0.4-0.7 0.1 0.3 0.6 0 1 0.3 0.6 1.6 0.4 0.5-0.2 0.9 0.5-0.8 0.7 0.8 0.7-0.5 0.6 0.1 0.7 1.3 0.9 0.2 0.5 1.2 1 2.4 1 0 0.4-0.2 1.1 0.2 0.3-0.1 0-0.1 0-0.3 0.3 0.3 0.1-0.2 0.7 0.1 0.2 0 0.2-0.4 0.2 0.2 0.1 0.1 0.1-0.2 0.2-0.2 0.7 0.3 0.4-0.2 0-0.1 0.2 0.4 0.8 0.3-0.1 0.3 0.2 0.3 0.9 0.1 0.1 0.1 0.1-0.1 0.4 0 0.4-1.2-0.2-0.6-0.6-0.3 0.3-0.6-0.4-0.3-0.5-0.8-0.8-1.1 0.1-0.7 0.6-0.1 0.5-1 0.1-0.4 1 0.1 0.5-1 0-0.2 0.7-0.6 0.4-0.8-0.5-0.8 2 0.1 0.7 0.8 0.2-0.3 1.3 1.7 1.3 0.7 0.2 0.2 0.7-0.2 1-0.9 0.7 0.3 0.8-0.1 0.3-1.4-0.6-0.2-1-2.6-0.3 0-0.6-0.5-0.4 0-0.8-0.3-0.3-1.1 0.1-0.9-0.3-0.6 0.2-1.4-0.9-0.6 0.1-0.4 1.4-0.4 0.5-0.4-0.4-1.1-0.1 0.5 1.1-0.8 0.9 0 1.8-0.6-0.1-2.2-1.2-0.5 0.2-0.3 0.6-1.5-0.6-0.5 2.8-0.4 0.5-0.2 1.8-0.7-0.2-0.4-0.4-0.6 0.2-0.3 0.5-0.7-0.2-0.8 0.9-0.4 0.1-1.1 2 0.3 0.8-0.2 2.7 0.4 1.2-0.4 0.9-1.4 0.6-1 1.4 0.6 0.4-0.4 0.7 0.1 0.8-0.4 0.5 0.3 0.8-0.4 1.1-0.6 0.9-0.3 1.8 0.2 0.6-1.4 0-1.5-0.9-1 0-1.3 1.7 0.3 1.6-1.1-0.9-0.7 0.6-0.6-0.6-1 0.1-0.1-1.1-0.4-0.8-1.3 0-0.3 1-0.5 0.5-0.4-0.1-1.8 0.7-0.7-0.3-1.6-1.2-0.5 0.5-0.1 0.5-0.9 0.5-0.3 0.9-0.8 0-0.6 0.7-0.5 1.2 0 1.7-0.1 0.5-0.8 0.2 0.1 1-0.2 0.7-0.5 0.3-1.1-0.4-0.6-0.8-0.8-0.6-0.7-1-1.2 0.1-0.6-0.7-0.3-0.7 0.7-1.2-0.4-0.9 0.1-1 0.5-0.6-0.9-0.4-1.5 0-1.1-1 0 0.8-1.7 0.3-0.5-0.6-0.9-0.5-0.3-1.1 0.6-1.3-0.3-1.1-0.7-1.1-1.4-0.6-0.6-1-1.4 0.4-0.2 0.6-0.8 0.1-0.2 0.6-0.7 0-1.3-0.8-1.2-1.8-1.7-0.3-0.6 0.6-1.1-0.2-0.4-0.5-1-0.4-0.5 1.3-0.4 0.3-0.2 0.9 0 1-0.8 1.3-1.1 0.3 0.4 0.5 0 0.9 0.4 1.1-0.2 1.5-0.7 0.1-1.3-0.3-0.3-0.4-0.7-0.2-0.6 0.7 0.3 0.7-1 0.5-0.2 0.7-1 0.1-0.4-0.8-2 0.6-1.1-0.4-0.7 0.5-2.2 0.3-0.7-0.1-0.6 0.3 0.1 0.8-0.9 0-1.1 1-0.7-0.1-1.7 0.4 0.5 1.3-0.7 0.4-1.1 0.3-0.8 1.1-0.9-0.2 0.3-0.8-0.2-1.1-0.5 0.8-0.7-0.4-1.5 0.5-0.7 1.4-0.7 0.1-0.8-0.2-0.7 0.2-0.2-0.8-0.7-1.1 0.1-1.5-0.6 0.2-1.2-0.5 0.1-1.5-0.4-0.5-1.2 0.3-0.2 0.4-1.2 0.4-0.6 0.8-0.7 0.1-0.9 0.6-0.4 0.9 0 0.7-0.3 0.7-1.3-0.3-0.7 0-0.9-0.4-0.5 0.6 0.2 0.5-0.6 0.4-0.9-0.1-0.1 1.6-0.8 1.7-1-0.8-0.4-1.1-1.2 0.3 0.1-1.1-0.9-0.3-0.4-0.8-0.7 0.1-0.9-0.4-0.4-0.5 0.2-0.8-0.5-0.6-0.8-0.1-0.2-0.6 0.3-0.6 0.9-0.3 0.2-0.5-0.3-0.7-0.9-1.6-0.8 0 0 0.9-0.4 0.1-1.2-0.5-1.7 0.4 0.3 0.6-0.1 0.5-0.8-0.2 0.3-0.6-0.6-0.3-0.3 0.4 0.1 0.9-1 0.9-0.7-0.8 0-1.1-0.4-0.5-0.2-0.9-0.4-0.3-0.5-1.3-0.8-0.6-1.1-0.4-0.6 1.6-0.5 0.8-1 1-2.1 0.6-0.3-0.2-2 0.3-1.8 0.7-1.1 0.2-1.1-0.4-2.8 0.1-2-0.5-1.5 0-0.2-0.6 0.8-0.2 0.3-1.4-0.3-0.6 0.6-0.5-0.6-1-0.6-0.4 0-0.6 0.5-0.4-0.8-1-0.3 0 0-1.2-1 0.2-0.6-0.9-0.8-0.7-0.8-0.4 0.3-1-0.2-0.8-0.8-1.1-0.5-1.5 0.2-0.4 0-1.6-0.5-0.3 0-1.8-0.8-0.2-0.1-0.8 0.2-0.4 0.6-2.4 0.4 0.1 0-1.5-0.3-0.4 0.2-1.5 0.4 0.1 0.9-0.4 0.7-1.6 1.2-0.4 0.6 0.3 0.7-1.1 0.9-0.2 1.3-1 0.9-0.2 1.3-0.5 0.3 0.1 1.3-1.3 1-0.2 0.8-1 1.3-0.3 1.2 0.2 0.5-0.4 0.2-0.9 1.2-0.2-0.2-1 0.6-0.4 0.7-1.1 0.1-0.6 0.7-0.2 0.9-1.4 0.8-0.2 2.4-1.8 2.1-0.9 0.1-0.5-0.3-1.7 0.4-0.6 0.9-0.4 1.4-0.1 0.6 0.2 0.9 0.6 0.2 1.2 0.6 0.3 2.5 0.1 1-0.4 0.2-2.4 1-0.3 1.4 0.6 0.2 1.1 0.8 0.2 0-0.7 0.8-0.1 0.6 1.1 0.8-0.2 0.9 0.5 0.6-0.6 0.7 0.4 0.2-0.7-0.1-1.3 1.4-0.1 0.5 0.3 0.5-0.4-0.9-0.7 0.7-1.2-1.1-1.1-1.4-0.8-0.7 0.3 0.1-1.7-0.8 0.2-0.7-0.6-1.9-0.1-0.7-1.5-0.8-0.3-1.2-0.8-1.3 0.5-0.7 0-1.8-1.4-1.3-0.6-0.3 0.4-0.7-0.4-0.2-1-1-0.8-0.7-1.1-0.9-0.8-1.4-0.1-0.2-1.2-0.9-0.5 0.4-0.7-0.9-0.6 0-0.4 1.1-1.6 1.3 0.2 0.7-0.5 0.6-0.1 0.1-0.8 1.5 0.1 0.4-0.5 0.1-1.2 0.3-0.5-0.5-0.8 0.2-1.3-1.9-0.5-1.9-0.2-0.2-0.4-0.6-0.2-0.7-0.9 0-0.4-0.9-0.2-0.3 0.4-1.2-0.1-1.5-0.4 0.1-2.2-0.1-0.4 0.9-0.3 1.2 0.5 0.3-0.8 0.9 0.3 1.6-0.7 0.1-0.7 1.2-1.9-0.1-1.1 0.8 0.1 1.6 0 0.5 0.5 1.2 0 2.4 1 0.9-0.7 0.9 0.1 3.1-0.5-0.4-0.6 0-1.1-1.3-0.3-0.5-0.1-0.5 0-0.4-0.2-0.2-1.1-0.4-0.8-0.3-0.6-0.7 0.1-0.4 0.3-0.4 0.3-0.4 0.1-0.6-1 0.5-0.7 0.3-0.6 0.1-0.6-0.1-0.5-0.2 0 0.3-0.7-0.2-0.8-0.3-0.2-0.5-0.2-0.4 0-1.2 0.7 0 0.2-0.2 0.5-0.6-0.2-0.7-0.6 0.3-0.7 0-0.4-0.3-0.1-1.1-0.1-0.2 0.4-0.2-0.2-0.4 0.2-0.6-0.5-0.3-0.3 0-0.1-0.1-0.1-0.1-0.2 0.2-0.2-0.1-0.6-0.6-0.4-0.1-0.1 0.2-0.2 0.1 0 0.1-0.3 0.3-0.2-0.2-0.2 0.1-0.5-0.2-0.2 0.4-0.2-0.2-0.5-0.3-0.6 0-1-0.4 0-1.1-0.9 0.9-0.6 0.1-0.3-0.2-0.3-0.3-0.2-0.9 0.5-1.1 0.2-0.2-0.1 0-0.5 0-0.7 0.3-0.2 0.1-0.2-0.1-0.4 0.6-0.9 0.6-0.5 0-0.1-0.3-0.9-0.4-0.6-0.1-0.3-0.5-0.4-1.3-0.4-0.2-0.1-0.2-1 0.7-0.6 0.2-0.9-0.5-0.5-0.7 0.1-1.1 0.6-0.9-0.6 0.7-0.3 0.3-0.6 1.1-0.3 0.5-0.7 0-0.5-1-0.1-0.2-1.4 2.1-0.8 0.5 0.3 1.6-0.1 1.2 0.2 0.9-0.2 0.5-1.4 0.9-0.4 0.5-1.2 0.7 0.4 0.7-0.2 0 1.2 0.7 0.4 1.2 0.2 0.1 1 0.8-0.5 0.8 0.2 0.6 0.9 0.1 1 0.5 0.7 3.5 0.6 1.7-0.1 0.9 0.6 0.6-0.1 2.7 0.4 1.9 0.4 0.7 1.2 1.6 3.2-0.4 2 0.2 1-0.2 1.6-0.4 0.6-0.6 0.4-0.2 1.1 2 0.8 1.9 0.9 0.6-0.5 0.7 0.8 0.8-0.9 1.3 0.4 0.1 0.8 1.8 0.8 0.6-0.1 1.1 0.4 0.6 0.7-0.3 0.9 1 0.2 0.2 0.7 1.3 0.1-0.5 1.2 0.5 0.4 1.6-0.4 0.7-0.5 0.8 0.2 1.9-0.1 0.2 1.1-0.6 1 0.6 1.2 0.1 0.6 0.5 0.4 0.7-0.2 0.9 0.3 2 0.2 0.5 0.3 0.8-0.7 0.6 0 1.2-1.2 0.8 0.1 0.7 0.3 1.5-0.6 0-0.6 0.8 0 0.8-1 0.8-0.1 1.4-0.6 0.5-0.6 0.7 0.8 1.3 0.3 1.4 0.9 0.4 1-0.4 3.6 0 1 0.8 1.3 0.8 0.4 1.1 0.2 0.6 0.8 0.4-0.3 0.7 0.1 0.3 1.5 1.1-1 1.2-0.6 1-0.7 0-0.7 0.7-0.4 0.8 0.2 1-0.5 1.4 0.4 0.1 0.2 1.5 0.8 0.7 0 0.6 0.8 0.6-0.3 0.7 0.1 0.1 0.8 1.2 0 0.7-0.9 1.4 0.1 0.5-0.2 1.2 0.1-0.1 0.4 1.8 0.4 0.1 0.4 2 0.7 1.5 1 1.5 0.1 0.8 1.4 2.1 0.8 0.2 0.5 2.2 0.7 0.1 0.5 0.9 0.4 0.7-0.1 0.2-0.7 0.6-0.5 2.2 0.8 0.9-0.7 0.4 0.1 0.8-0.5-0.1-0.8 1.2 0 0.1-1.1 1-0.2 0.5 0.1 1.4-0.5 0.9-1.3 0.1-0.8 0.9 0.1 0 1.7 0.3 0.7 0.4 2.8 1.6 1.3 0.8 0.4 0.8-0.4 2 0 0.7 0.4 0 1.2 1.6 0.2 1 0.8 0.6-0.5-0.1-1.1 0.4-0.7 0.7-0.4 1.4-0.2 1.3-0.7 1.7 0.4 1 0.5 0.2 0.5 1.2 0.5 0.8 0.1 1.4-0.2 0-0.4 0.9-0.4 0-0.8 1.1 0.3 0.8 0.8 0.7 0 0.6-0.5 0.2-1 0.5-0.8 1.9 1.2 0.5-0.5-0.1-0.6 1.4-0.5 0.3 0.8 0.5 0.4 0.3 1.1 1.1 0.8 0.9 0.2 0 0.8 0.6 0.4 0.7-0.2-0.1-0.6 1.8-1.5 0.5-0.7 0.3-1.1-0.3-1.9 0.3-0.7z" fill="#818CF8" opacity="0.5" stroke="#818CF8" stroke-width="1.5" />
  <path class="state-highlight" d="M694.6 610.4l1.1 0.6 0 1.5-0.8 0-0.9-0.5 0.2-1.2 0.4-0.4z m11.5-0.3l1.4 0.6 0.6 0.4 0.2 1-1.5 0.1-0.6-0.4-0.3-0.6 0.2-1.1z m-3.6-1.1l0.2 1 0.8 0.4-0.4 0.4-0.2 0.6-0.9-0.2-0.2-0.5 0.1-1.2 0.6-0.5z m-6.5-0.1l0.6 0.3 0.9 0.8 0.1 0.8-0.3 0.5-0.9 0.4-0.5-0.9-0.9-0.5 0.5-0.9 0.5-0.5z m8-0.5l0 1.2 0.9 1.1-0.4 0.4-1.3 0 0-0.4 0.3-0.2 0-0.2-0.2-0.1-0.5-0.2-0.3-0.9 0.2-0.4 1.3-0.3z m6.6 0.4l0.8-0.1 0.2 0.7-0.3 0.5-1-0.2-0.6-1.1 0.5-1 0.4 1.2z m-13.3-1.8l0.3 1.2 0.5 0.7-0.3 0.8-1.2-0.6 0-0.5 0.5-0.7 0.2-0.9z m0.5-0.1l0.5 0.5-0.6 0.9-0.3-1 0.4-0.4z m13.4-0.4l0.2 0.1 0.1 1.2-0.2 0.2 0 0.4 0.3 0.2 0.9-0.2 0.1 0.8 0.4 0.3-0.3 0.7-0.9 0.1-0.3-1.5-0.1-0.1-0.8 0-0.1-0.6-0.4-1.4 0.7 0.1 0.4-0.3z m-6-0.1l0 1.6-0.4 0.3-0.6-0.3-0.7 0-0.3-0.3-0.6-0.4 1 0 0.1-0.3 1.5-0.6z m-17 0.1l0.6 0 0.8 1-0.2 0.6 0.3 0.4-0.6 1.1-1 0.4-0.1-0.7 0.4-1.3-0.2-1.5z m4.9-0.2l0.6 1.3-0.7 2-1-1.1-0.1-1.4 0.6-0.6 0.6-0.2z m8.3-0.1l0.2 1 1.3 1.2-0.5 0.6-1.3-1.7 0.3-1.1z m-16.8-0.3l0.4 0.8-0.6 0.2 0 0.6 0.6 0.3 0.3 0 0.2 1.1-0.9 1.1-0.3-0.8-0.5-2.1 0.2-0.7 0.6-0.5z m29.2 0l0.4 1.2 0.7 0.8 0 1.1-0.8 0.6-0.7 0-0.8-0.8 0.1-1.7-0.3-0.7 0.6-0.5 0.8 0z m-2.8-0.2l0.5 0.2 0.9 0.8 0.2 0.5-0.2 0.9-0.4 0.3-0.6 0 0.2-0.7-0.2-1.2-0.4-0.8z m-14.8-0.3l0.9 0.1 0.5 0.8 0 0.4-0.7 0.3 0.1 1-0.9 0.9-0.5-0.6 0.1-0.8-0.4-1.2 0.9-0.9z m11.6-0.4l1 0.7 0.2 0.5 0.8 0.9-0.7 2.1-1.2-1.1-0.5-1.2 0-1 0.4-0.9z m-16.1 0.5l0.5 1.1-0.5 0.4-0.1 1.2 0.8 1.1-0.7 0.3-0.4 0.9-0.5-0.6 0-1.2-0.2-1.3 0.6-0.7 0.5-1.2z m-6.5-1.1l1.7 0.3-0.4 0.8 0.4 0.2 1.4 2-0.7 1.3-0.1 1.5 0.6 0.6-0.5 0.6-0.8 0.2-0.7-0.2-0.3-0.4 0.2-0.6-1-1.1 0.6-0.5 0-1.3-0.3-0.2-0.6 0-0.3-0.3 0.1-0.3 0.7-0.4-0.4-0.6 0.1-1.2 0.3-0.4z m24.1 0l0.7 0.2 0.6 0.3 0.1 0.4 0.3 0.1-0.2 0.6 0 0.7-0.7-0.1-1-0.7 0.3-0.5-0.1-1z m-19.2-0.1l-0.2 0.7 0 0.4 0.2 0.5 1.1 0.3-0.4 0.5-1 0.5-0.7-0.9 0.4-0.6-0.2-1 0.3-0.4 0.5 0z m21.8 0l0.7 0.3 1.1 1-1.2 0.5-0.2-0.7-0.5-0.5 0.1-0.6z m-5.9 0l1 0.1-0.7 1.7 0 1 0.7 1.7-0.7 0.8-0.9-0.3-0.2-0.4 0.5-1.1-0.1-1.2-0.6-0.5-0.6 0.2-0.1-0.8 0.3-0.6 0.8-0.1 0.6-0.5z m-15.2 0l-0.2 1-0.7 0.1 0-0.4 0.4-0.6 0.5-0.1z m6.7-0.5l0 0.6 0.2 0.4 0.9 0.4 0 0.5-0.8 0.3-0.4-0.3 0.2-0.6-0.6-1 0.5-0.3z m-9.6 2l-0.2 0.6-0.6-0.7 0.2-1 0.5-0.5 0.2 1.3-0.1 0.3z m23.8-2.3l0 1.3 0.5 0.6-0.3 0.7-0.3-0.3-0.6-0.2 0.4-0.4-0.2-0.3-0.5 0.3-0.1-0.3-0.2-0.2 0.2-0.7 0.3-0.1 0.5-0.5 0.3 0.1z m-13.3-0.1l0.5 0.6 0.2 1.2-0.3 0-1.2-0.6 0.1-0.8 0.1-0.2 0.6-0.2z m-5.1 0l0.5-0.1-0.2 2-0.5 1-0.4 0-0.3 0.2-0.3-1.3 0-0.9 0.8-1.2 0.4 0.3z m8.8-0.7l0.3 1 0.1 0.1 0.1 0 0.1 0.1 0.4 0.2 0.4 0.4-0.2 1 0.8 0.3-0.6 0.7 0.1 0.4-0.1 0.4-0.4 0-0.5-0.2 0 0.3 0.8 0.5-0.3 0.3-1.2-1.1-0.6-2 0.6-1.6 0.2-0.8z m-5.9-0.1l0.9 0.6-0.3 1.3 0.4 0.9-1.1-0.1-0.6 0.7-0.7-1.2 0-0.8 0.9-1.1 0.5-0.3z m-4.2 0l0.2 0.1 0 0.2 0.2 0.2 0.3-0.1-0.1 0.4-0.6 0.7 0 1.9-0.7-0.9 0-0.4-0.6-0.9 0.4-0.4 0.2-0.2 0.4-0.3 0.1-0.2 0.2-0.1z m19.7 0l0.6 0-0.2 1-0.7-0.2 0.3-0.8z m-8.5 0.6l-0.1 0.8-0.4-0.1 0-0.1-0.2 0 0-0.5 0-0.1 0.3-0.1 0.3-0.5 0.1 0.6z m2.7-0.3l-0.2 0.8 0.3 0.5-0.7 0.6-0.7 0.1-0.2-0.7 1.2-2 0.3 0.7z m-1.4 2.1l-0.4 0.6-0.7-0.1 0.3-0.9-0.5-0.4 0.5-0.6 0.7-1.5 0.3 0.6-0.3 1.3 0.1 1z m4.4-2.9l0.1 0.1 0.5 0 0.1 0.2-0.3 0.5 0 0.1-0.4 0.3 0.2 0.2-0.6 1.3-0.3-0.1 0.2-0.8-0.6-1 0-0.3 0.4-0.1 0.2-0.2 0.5-0.2z m-14.7-0.4l0.5 0.9-0.5 0.5-0.9-0.1-0.1-0.7 1-0.6z m15.6-0.4l0.1 0.3 0.3 0.5 0.7 0.1-0.2 0.7-0.5-0.2-0.5 0.7 0.3 0.9-1-0.4 0.2-0.4-0.2-0.2 0.3-0.3 0.2-0.5 0.2-0.1-0.1-0.2-0.3 0-0.1-0.5 0.3 0 0-0.3 0.3-0.1z m-12-0.1l0.8 0.7-0.3 0.6 0.2 0.6-0.9-0.2-0.3-0.5 0.2-0.8 0.3-0.4z m-8.9-0.4l0.7 0.2 0 1.3 0.3 0.9 0.7 0.3-0.1 0.7-0.7 0-0.5 0.3-0.1 0.3 0.2 1.1-0.5 0.4-0.8-0.3 0.1-0.4-0.2-1.1-0.8-1.2-0.6-0.1-0.1-0.5 0.2-0.2 1.4-0.6 0.3-0.5-0.1-0.4 0.1-0.1 0.5-0.1z m17.9-0.2l0 0.3 0.2 0.1 0.6 0.1-0.1 0.2 0.2 0.7-0.1 0.7 0.6 1-0.2 0.7 0.1 0.4 0.2 0.2 0.8 0.1-0.3 0.6-1.2-0.8-0.1-0.7-0.5-0.4-0.9-0.1 0.2-1.2 0-1.3 0.5-0.6z m-24.5-0.3l0.7 1.6 0.4 0.5-0.2 0.6 0.2 1.2 0 0.8-0.5 2 0 1.4-0.7 0.9-1.5 0-1.7-0.7-0.1-0.9 0.2-1.7 0.6-0.6 0.4-1.6 1.7-3.2 0.5-0.3z m22.3-0.2l0.1 0.2-0.2 0.2 0.1 0.2 0.3-0.3 0.1 0.2 0.9 0.1-0.3 1.4-0.9 0.5-0.3-0.5-0.6-0.2 0.3-1.3 0.3-0.3 0.2-0.2z m6.4-0.5l1.2 0.6 0.6 0.5-0.1 1.3-0.3 0.4-0.9 0.2-0.3 0.9-0.4 0.4-0.4-0.3-0.6 0 0.3-0.6 0.5 0 0.3-0.1 0.2-0.6-0.3-0.3-0.5 0-0.2-0.5 1-1-0.1-0.9z m-12.2-0.2l0.2 0.2 0 0.2 0.3 0.4-0.1 0.2 0.5 0 0.2 0.1-0.1 1.3-0.4 1.8-0.5-0.3-0.4-0.9 0.3-0.3-0.5-0.8-0.4-0.3 0.3-0.8 0.6-0.8z m6.7-0.1l0.8 0.5-0.3 0.8-0.8-0.1 0.3-1.2z m-8.7 0.1l0.5 0.5-0.5 2-0.6 0.1-0.5-0.8 0.4-0.8 0.3-0.4-0.1-0.8 0.5 0.2z m-3.9-0.2l0.4 0.4 0.8 0.3 0.3 1.3-1.3 1-0.4 0.7-0.3 0.1-0.1 0-0.1-0.4-0.1 0-0.2 0-0.5 0.5-0.4-1.3 0.3-1.5 0.6-0.5 0-0.6 0.6 0.1 0.4-0.1z m9.2-0.1l0.3 0.3 0.7 0.1 0.4 0.6 0.6 0.5-0.4 1.2 0.1 0.3 0.3 0-0.4 1.4-0.5-0.5 0.1-0.5-0.1-0.1-0.3 0.4-0.1 0.2-0.4 0.2-0.2-0.4-0.4-0.2-0.4-1.1 0.1-0.7 0.6-1.7z m-7.3-0.2l0.2 0.1-0.6 0.7-0.5-0.3 0.4-0.5 0.5 0z m4.7-0.4l0.9 0.3-0.5 1.2-0.4 0.3-0.4-0.4 0-0.3-0.2-0.3 0.6-0.8z m-17.3-0.1l0.3 0.4-0.5 0.6-0.4-0.6 0.6-0.4z m24 0.3l0.7 0.2 1-0.1 0.9-0.5 2 1.1-0.3 1.3-0.5 0.8-0.1 0-0.2-0.5 0 0.2-0.2 0.1 0 0.3-0.4 0.1-0.3 0.3-0.3 0.2-0.5 0.4-0.3-0.3 0-0.4-0.1-0.6 0-0.2-0.1-0.1-0.5 0-0.4-1.5-0.4-0.8z m-3.9-0.5l0.3 0.4 0.8-0.2 0.7 0 0.6 0.3 0.2-0.1 0.5 0.6-0.6 1-0.1 0.3-0.2 0.1 0.2-0.3 0-0.2-0.2 0-0.4 0.4-0.1-0.4-0.5 0-0.3-0.6-0.3-0.2-0.4 0-0.4-0.6 0.2-0.5z m0.8-1.8l0.1 0.8 1.7 1.2-0.4 0.2-0.9-0.4-1 0.2-0.3-0.6 0.1-1.4 0.7 0z m-3-1.5l0.5 0 1.5 0.7-0.8 1.2-0.1 0.5-0.4 0.5-0.7-0.5-0.9 0.1-0.1-0.6 0.2-1 0.8-0.9z m-17.7-0.2l-0.6 1.4-1 1.4-0.2 0.6-1.1 0.8-0.3-0.1 0.3-1.7 0.5-1.1 0.8-0.8 1.6-0.5z m23 0.2l1.2 0.1 0.6-0.2 0.3 0.4 0.8 0 0.3 1.6 0 1.4-0.3 0.3-1.4 0.1-1.1-0.7-1.7-0.2-0.8-0.5-0.1-0.9 0.4-0.5 0-0.7 0.5 0 0.9-0.5 0.4 0.3z m-1.7-1.1l0.4 0 0.1 1.1-0.6 0-0.3-1.1 0.4 0z m4.7 0.2l0 1-0.8 0.1-0.8-1 1.6-0.1z m3.9-0.2l0.8 0 1 1.4 0.3 1-0.5 1.9-1.1 0.3-1.1-0.9 0.7-0.9-1.5-0.7 0.1-0.6-0.3-0.2 0.6-1.3 0.5-0.3 0.5 0.3z m-7-0.4l0.7 0.4 0 0.9-0.6 0-0.3-0.3-0.3 0.1-0.5-0.2 0.4-0.7 0.6-0.2z m2-0.7l0 0.6 0.4 0.7-0.7 0-0.4 0.1-1-0.7 0.3-0.3 0.3-0.1 0.6-0.3 0.5 0z m1.2-0.1l-0.5 0.8-0.6-0.1-0.1-0.9 1.2 0.2z m-3.5-0.1l0.1 0.7-0.8 0.7-1.2-0.4 0.4-0.8 0.7-0.8 0.6-0.3 0.2 0.9z m0.5-1.4l1 0.2 0.1 0.6 0.6 0.8-0.5 0-0.5 0.3-0.3-0.6-0.8 0.1-0.2-1 0.6-0.4z m1.7-1.6l0.7 0.1 0.7 1.3 0.5 0.7-0.2 0.7-1.5 0.1-0.6-0.5-0.3-0.7 0.7-1.7z m2.8-0.8l1.2 1.5 0 1.1-0.5 1.3-0.4 0.3-0.7 0.1-0.5 0.6 0.1 1.1 0.2 1 0.5 0-0.4-1 0.2-1.3 0.6 0 0.7 0.8-0.4 0.8 0.3 0.5-0.1 0.6 0.7 0.6 0.1 1.1 0.9 0.7-0.2 0.7-0.8-0.1-1.6-0.9-0.5-0.4-0.6-1.9 0.1-0.6-0.5-2 0.2-0.5 0.8-0.8-0.1-0.5-0.6-0.8-0.4-1.4 0.7 0.4 1-1z m1.8-0.4l0.4 0.1 0 1.2 0.3 0.6 0.9 0.6-0.6 1.4 0.3 1.4-0.7 0.2-0.6-0.4-1.3 0 0.6-0.7 0.5-1.9-0.1-0.6-0.5-0.8-0.2-0.9 1-0.2z m-10.5-0.3l1.3 0.5 1.1 0.1 0.2 0.4 0.7 0.4-0.8 0.9-1.1 0.5-0.4 0.7-1.2 0.8 0 1.2 1.4 0.7 0.4 0.7-0.7 0.5-0.6 0-1.3-0.6-0.1-1.1-0.3-1-0.6-1 0.6-2.1 0.9-0.7 0.5-0.9z m5.2 0.7l0.2-0.2 0-0.3 0.2-0.1 0.2 0.3 0.2 0.9-0.6 0-0.1 1.1-1.7 0.6-0.1 0.4-0.8 0.3-0.1 0.6-0.7 0.4-0.4 0.9-1.1-0.3-0.1-0.5 1.1-1 0.5-1.1 0.7-0.3 1.2-1.3 0.9 0.5 0.5-0.9z m2.9-1.3l0.8 0.1 0.2 1-0.5 0-0.5 0.6-0.7-0.6 0.2-0.4 0.1-0.9 0.4 0.2z m-4-2.2l0.4 0.7 0 0.9-0.8 0.4 0.1 0.8 0.7 0.4-0.4 0.6-0.9 0.1-0.7-0.6-0.7-0.2 0.2-1.1 0.7-0.8 0.4-0.2 0.2-0.1 0.1-0.1 0.1-0.5 0.6-0.3z m1.2-2.9l0.7 0.1 0.8 0.6 0.6 1.2 0.9 0.5-0.2 1.2 0.7 0.8 0.1 0.6-1-0.1-0.2-0.1-0.1 0.3-0.5 1.7-0.6 0.4-0.4-0.2-0.2-0.9-0.2-0.3-0.2-0.1-0.2 0.2-0.4-0.2-1 0-0.1-0.5 0.7-0.7 0.1-0.9-0.8-1.2 0.2-0.6-0.1-0.7 0.4-1 0.4 0 0.6-0.1z m4.6-0.8l0.2 0.7-0.2 1.4 0.6 0.1 0.7 0.9-0.7 0.1-0.2 0.5 1.3 1.1 0.2 1.2 0.9 0.7 0.1 0.5-0.3 0.8 0.5 0.8-0.4 0.6-0.4-0.7-0.9-0.6 0.1-0.9-0.3-0.7-1.1 0.1-0.6-0.4-0.3-1-0.4-0.5 0.2-0.7-0.1-0.8 0.1-2.4 0.3-0.2 0.2-0.8 0.5 0.2z m-4.2-0.6l0.8 1 0.5 0.3-0.2 0.7-1.1-0.9 0-1.1z m-2.7-3.7l0.3 0 0.3 0.5 0.4 0.2-0.3 0.7-0.7-1.4z m4-1.8l0.2 1 0 1-0.4 0.3 0.1 0.5-0.1 0.3 0.2 0.2 0.1 0.6 0.2 0.3-0.1 0.9 0.6 0.4-1.3 0.9-0.1-1-0.7-0.4-0.2-0.8 0.2-0.4 0-2 0.2-1.1 0.6-0.7 0.5 0z m0.7-0.6l1.3 0.5 0.3 0.6 0.4 2 0.6 0.5-0.2 1 0.3 0.4-1 0.6-0.2 1.5-0.5 0.7-0.2 1.6-0.3 0-0.9-0.9-0.4-1.7 0.7-0.4 0.3 0.2 0-0.7-0.6-0.4 0.4-0.5-0.5-0.6-0.1-0.3-0.2-0.4 0.1-0.4-0.1-0.3 0.3-0.3 0.3-0.8-0.3-0.5-0.3-1.2 0.8-0.2z m-5.7-172.6l1.1 0.5 0.5 0 0.9 0.7 1.5 0.4 0.3 2.7-0.3 1 0.1 2.1 0.6-0.2 0.1-0.6 0.6-0.7 1.2 0.7 0.3 0.9-0.4 0.6 0.7 0.5 0.7 0.2 1.5-0.7 0.6 0.7 0.1 0.7 1.3 0.2 0.1 0.8 0.5 0.6-0.1 0.9 1 1 1.5-0.4 0.5 0.5 1.6-0.5 0.6 0.2 1.2-0.7 1.1-0.7 0.3 0.5 1-0.9 0.9 0 0.2 0.8 2 0.3 0.3 1.1 1.3 0.1 0.5-0.6 0.6 0 1.3 0.6 1.5 0.5 0.6 0.5 0.4-0.3 0.5 0.5-0.4 0.9-1 0.8 1.5 0.3 0.4-0.8 1.2 0.1 0.8 0.6 0.9 0 0.8 0.8 1-0.6 1.7 0.5 0.5 0.7-0.1 1.1 0.2 0.5-0.6 0.4 0.2 0.7 0.5 0 0 1.1-0.4 0.6-0.1 1.5-0.3 0.3 0 1.3 0.6 0.9-0.1 0.6-0.4 0.6-0.4 0.9 0.4 1-1 0.6-1.5 0.5-0.1 0.9-0.6 0.5-0.4-0.2 0.3 1.2-0.1 0.1-0.4-0.1-0.8-0.2 0-0.4-0.2 0.2 0.2 0.5 0.4 0.9 0 0.2-0.5 0-0.3-0.2-0.3 0.2 0.3 0.1 0.2 0.1 0 0.3 0.4 0.3-0.3 0.3-0.2 0.1-0.2 0.4-0.3 0 0 0.1 0.6 0 0.3-0.1 0 0.5-0.4 0 0.1 0.5-0.2 0.1-0.5 0 0.2 0.5 0.2 0.1 0.3-0.1 0.6 0 0 0.1-0.5 0.3-0.2 0.4-0.8-0.1 0.2-0.7-1.2-1.6-0.8-0.4 0.2 1.2 0 0.7-0.6 0-0.9 1.5 0.2 0.5 0.9 0.4 0.7 1.8-1.6 0.9-0.7 0.5-0.1 2-0.8 0.5-0.5-0.2 0.1-0.9-0.8-0.5-0.5 0.3-1.4 0.1-1.2-0.7 0.1-1-0.7 0.1-0.6 0.7-1.1 0.5-0.5-0.2-0.7-0.9-1.4-0.8-0.9-0.2-0.3-1.5-0.8-0.8-1.1 0.1-0.8-0.3-0.5-0.5-0.6-1.5 0.1-0.7 0.1-1.4-0.7-0.7-0.6-1.3 1.1-0.4-1.3-1.3-0.1-2-1-0.5-0.9 0-0.6-0.7-0.9-0.1-0.4-0.4 0-0.7-0.9-0.5-0.3 0.4-0.1 0.9-0.9 0.9-0.3 1.1 0.4 0.5 0.9 0.1 1.8 1-0.5 0.5 0.4 0.7 1-0.2-0.2 0.6 0.8 0.2 0.5-0.3 0.1 1.3-0.4 0.6-1.9-0.2-1.3 0.2-1-1.7-1.8-0.1-0.4 0.5-0.1 0.8 0.6 0.8-1.1 0-1.1-0.9-0.1-0.8 0.2-0.7-0.6-0.5-1.5 0.5 0-1.3-0.4-0.8-0.7 0.3-1.1 0.1 0.1-0.5-0.5-1 0.1-1-0.6 0.1-0.7-0.8-0.9-0.4-0.1-1.2-0.9-0.1 0.1 0.9-1.4-0.3 0.2-0.6-0.4-0.4-0.8 0.1-0.1-1-1.1-0.4-0.2-0.9-0.8-0.2-0.4 0.4-0.6-0.6-0.3-1.2-0.2-1.8-0.6 0.1-0.8 1.3-0.1 1.1-0.4 0.5-0.4 1.5-0.6 0.7 0 0.6 1 0.9 0.4-1.3 1.3 0.6 2.4 0.5-0.1 0.3 0.6 0.7-0.1 0.6 1 1.7-0.5 0.5-1.1 0.1-0.6-0.2-0.5 0.2-0.2 0.8-0.8 0-0.4 0.7-1.3 0.7-0.5 0.7 0 1.1 0.3 0.3-0.3 0.9-1.1 0.7-1.1 0.2-0.4 0.4-0.8-0.1-0.6 0.7-1.8 1-0.2 1.4-0.5 0.6 0.9 1.1-0.5 0.7 0.5 0.8-1 0.2-0.9 1.2-0.7 2-0.6 0.2-0.2 0.6 0.7 1.3 0.2 1.2-0.3 0.9 1.8 1.8 1-0.9 0.5 0.4 0.6-0.3 0.5 0.1 0.7-0.6 0.5 0.1 0.1 1 0.6 0.3 1.7 1.5 1.3 0.8-0.1 0.7 1 0.4 0.1 0.5 1.7 0.4 0 1.3-0.3 0.5 0.8 1.2 0.9 0-0.1 0.8 0.9 0.9 0.7 0.2 0.3 0.5 0.9 0.4 0.7 0.1 0.4-0.4 0.5 0.7 0.7 0 0.1 0.6 0.6 0.4 1.2 0 0.4-1 1-0.2 0.9 0.4 1.1-1.2 0.4 0.2 0.1 1.1 0.6 0.1 0.4 1.2-0.5 0.5 0.3 0.6-0.4 1 0.7 0.2-0.1 1.2 1 0.5 0.5 0.9 0.6-0.4 0.5 1 1.3 0 1.1 0.5 0.6-0.1 0 0.6-0.8 0.1-0.9 0.7-0.2 0.7 0.3 0.8-0.9 0.1 0.1 0.7-0.5 1.2-0.8-0.6-0.8 0.1-0.9-1.1-1.5 1.4-0.9-0.3-0.2-0.3-0.9 0.1-1.3-0.9-0.8 0-0.5 0.4-1-0.3-0.9 0.1-1.3 1-0.6 0-0.2-0.7-2.6-0.6-0.4 0.6-0.7 0.1 0.6 1.6-0.1 0.6-0.6 0.4 0.4 1.7-0.6 1.3 0.6 0.2-0.5 1.2-0.5 0.1-0.9 1.4 0.1 0.9-0.7 0.2-0.7-0.4-0.6 0.4-0.6 0.9 0.6 1.3-0.5 0.4-0.4-0.4-1.7-0.5-0.1-0.9-1.1-1.5-1.7 0.2-0.8 0.7-0.6 0.1 0 0.5 0.6 0.7-0.1 0.6 0.4 0.8-1.9 1.9-0.2 1.2-0.5-0.1-0.8 1.2 0.2 0.4-0.4 0.9-1.7 1.7 0.1 0.3 1.1 1 0.8 1.2 1.3 2.2 1.4 1.5 0.9 0.6 1 1.2 2 0.5 2.2 2.2 0.7 0.4 1.5 0.1 1.6-0.3 2.3 1.4 0.8 0.1 0.9 1.7 0.4-1.2 0.7 0.5 1.3 0 0.1 0.3 1.5-0.3 1 0.1 0.7 0.5 0.5 1.1-0.2 2.7-0.4 0-0.7 1.1 0.4 1.8-0.5 0 0 0.8 1 0.1-0.1 1.1 0.5 0.4 0 1.5 0.7 0.2 0.4 0.8-1 0.1-0.2 1 0.2 0.9-0.3 0.8-0.9 0-0.1 0.5-1.2 0.6-0.1 0.4-1.1 0.4-0.3-0.4-1.6 0.5 0.9 1.6-0.8 1-0.7 0.3 0.7 0.6-0.2 1.1-0.3 0.8 0.3 1.7-0.4 0.9 1.1 0.7-0.2 1 1.9-0.3 0.6 2.2 0.8 0.4 0.4 0.8 0.7 0.3 0.9 1 1.2-0.6 0.6 0 0.1 0.6-0.4 0.6 0.1 0.9-0.9 0-0.4 2 0.4 0.7-0.9 0.7 0 0.8 0.3 0.4-1.7 0.9 0.9 0.9-0.1 0.6 0.9 0.6 0.8-0.1 0.5 0.8 1 0.1-0.2-1.3 0.8 0.2 0.7 0.8 2.1-0.2 0.6 0.6 0.7 0.4 1-0.8 0.3 0.2-0.2 1-0.8 0-0.8 0.8-0.2 1.1-0.8 0.7-0.3 0.6-1 0.3-0.1 1 0.4 1.5-0.2 0.4-0.1 1.8-0.3 0.6 1.2 0.2 0 0.8 0.6 0.3-0.3 0.5 0.2 1 0.8 0.4 0.4-0.4 0.7 1.3-0.3 1.8-0.6 0.3-0.7 0.8 0.1 1.2 0.6 0.9 0.7 0.6-0.4 1.2-0.6 0.7 0 0.7 0.9 0.4-0.7 0.6 0 0.9-1.4 0.3-0.6 0.7-0.3-0.1-0.4 1.3 0.1 0.5-0.3 2.4-0.6-0.2-0.7-0.7-0.1-0.9-0.5-0.6-0.4-0.2-0.4-0.4-0.7-0.1-0.4 0-0.2 0.2-0.3-0.3-0.3-0.1-0.3-0.3-0.3 0-0.3 0.3 0.7-0.2 0.2 0.3 0.5 0.3 0.5-0.1 0.3-0.1 0.5 0.2 0.3 0.3 0 0.4 0.4 0.4 0.4 1.4 0.6 0.5 1 0 0.2 0.8-0.2 1.6-0.5 0.2-0.4 0-0.2 0.1-0.5 1 0.3 0.4-0.3 0.9 0.1 0.4-0.4 0.3 0 0.2-0.1 0.4-0.2 0-0.4 0.3-1 0.8 0.2 0.3-0.5 0.9-1.2-0.5-0.9 0.2-0.3 0.8-0.9 1 0.1 0.5-0.5 0.5-0.2 0.9 0.2 1.7 0.3 0.6-0.7 0.8-0.6 1.9 0.6 1.2-0.4 1.1-0.8 0.6-0.3-0.5-0.3 0.2-0.6-0.3 0.1 0.9-0.7 1.1-1-0.8-0.1-0.4 0.5-0.8 0.4-0.2-0.6-0.1-0.7 0.2-0.3 0.5-0.6-0.1 0.2-0.7-0.7 0.2-0.3 0.3-0.3-0.1-0.3 0.2-0.6 0.6-0.1 1.2-0.3 0.5 0.2 1.3-0.4 0.4-0.6-0.2-0.2-0.8-0.1-1.3-1-0.3-0.3 0.1-0.2 0.2-0.1 0.9-1.3 0.5-0.3 0.3-0.1 0.3 0.7 1.1 0.2 0.6-2.3-0.4 0.1-0.4-0.6-1.6-0.8-1-0.5-1.2 0.4-1.5 0-0.5-0.7-1 1.4-1.6 0.6-1.1 0.4-2.1-0.5-1.5 0-0.7-0.8-1.3-0.8-0.5-1.6-0.4-1.5 0 0.3-0.8 0.2-1.1 0.6-1.6-0.6 0.1-0.3 0.7-0.1 1.1-0.9 1.2-0.8 0-1.4-0.9-0.9-1.3 0-2.5-0.3-1.9-0.7-0.1 0.5 1.4 0 1.5-0.4 0.4 0.2 1.7 1.1 1.1 0.7 1 1.1 0.4 0.4-0.4 1 0.8 1.4-0.1 1 0.2 0.4 0.7 1.6 2.1-0.9 1.3-2.8 2-0.8 0.3-1.2-1.3 0.1-0.8-0.6 0 0.2 1.1 1.2 1-0.6 1.1-1.1 2.9-0.8 1.7-1.4 1.4-0.4 0.7-1.1 0.6-2.2 1.8-0.7 1.1-0.7 0.4-1.2-0.1-0.5 0.7-2.1 0.9-4 0.8-2.7 0.8 0-0.1 0-0.5-0.7-0.7 0-0.4 0.2-0.8 0-0.6 0.1-0.2-0.2-0.6 0.1-0.3-0.1-0.1-0.7-0.2 0.3-0.1-0.3-0.3 0-0.6-0.1-0.2-0.5 0-1.1-0.1-0.4-0.1-0.4 0.1-0.5-0.4-0.5-0.2-0.1 0.2-0.2-0.3-0.2 0-0.1 0-0.2-0.1-0.4-0.2-0.3 0-0.1-0.3-0.5 0.1-0.2-0.1 0-0.1-0.4-0.3 0.2-0.2-0.2-0.5-0.2-0.4-0.4-0.5 0.2-0.3-0.5-1.1 0.6-0.8-0.6-0.6-0.1-0.3 0.1-0.5-0.4 0-0.1 0.1-0.6-0.1-1-0.4-0.2-0.3-0.3 0.9 0 0.7-0.3 0.1-0.7 0.4-0.5-0.2-0.2 0.2-0.2 0-0.4 0.7-0.1 0.1 0 0.1 0.2 0.2 0 0.2 0 0.8-0.6 0-1.6-0.2-0.4-0.7-0.7-0.8 0.2-1.3 1-1.7-0.4-0.9 0.1-0.6-0.2-0.5-0.8-0.1-1.3-1.4-1.7-0.1-2-0.5-0.6 0.1-0.3-0.6-0.6-0.1-0.2-1.1-0.3-0.3-1.3 0.3-1.3 0.1 0-1.3 0.3-1.4 0.8 0.3 1.5-0.4 0.7-0.7-0.5-0.5 0.8-0.4 1 0.1 1.3 0.3 0.1-1.1-0.6-0.7-1.5-0.9 0-0.6 0.4-1.1 0.1-1-1.3-0.7-1.4-0.2-0.6-1.8 0.2-0.4 1.3 0.2 0-1.6-0.2-0.9-0.7-0.3-0.3-0.8-1.7-0.3-1.1 0.3-0.7-0.1-0.2-0.6-0.4-0.2 0.1-2.1-0.7-0.7-1.3-0.6-1-0.8-2.4-0.4-0.9-1.4-1.3-0.6 0.2-1.2 0.4-0.8 0-1.1 0.5 0 0.1-0.9 0.4-0.5-1-0.7 0.1-0.4 0.8-0.2 0.4-0.5 0.5 0.4 0.4-0.5 0.7 0.2 0.7-0.7-0.1-0.7-0.8 0.5-0.5-0.8-1.2 0.1-1.6-0.3-0.8 0.7-0.4-0.6-0.7-0.2-0.9 0.3-1.8-0.8-0.7 0.6-1.6 0.1-0.4-0.9-0.9 0.1-0.5-1-0.9-0.8 0.1-0.7-0.7-0.5-0.9 0.1-1.6-0.8 0.2-0.6-0.4-0.5-1.9-0.1-1 0.3-0.3 0.3-1 0-0.5-0.7-0.8-0.4 0-0.5-0.7-0.8-0.7 0.1-0.3-2.7 0.2-0.6 1-0.9 0.3-1-0.2-1.3 1.1-0.4-0.6-1.2-0.6 0-0.1-1.6 0.5-0.9 1.1 0.2 1.1 0.6 2.8-1.2 0.7-0.1-0.3-1.1-0.7-1.2 0-0.4 0.9-0.8 1.2 0.2 0 0.4 1-0.2 1.2 0.1 0.5 0.7-0.3 0.9 0.4 0.9-0.4 1 1.2 0 0.9 0.6 0.6 0.1 0.1 0.8 0.7 0.1 1.2-0.2 0.1 0.4 0.6 0.3 0.4-0.2-0.4-0.7 0.9-0.5 0.8-0.2 0.2-1.9 0.4-0.3-0.4-0.8 0.9-1.1-0.1-0.4 0.9-0.2 1.3-1.6 1.2-0.1 1.7 0.2 2.1-1.2 2-0.8 2.1-0.5 0.7 0.1 0.2 0.6 1.9-0.4-0.1-0.4 0.5-1.5 0.4-0.2 0-1.2-0.6-0.8 0.1-0.6 0.6 0.1 0.8-0.4 0.6-0.8 0.7 0-0.2-0.7 0.7-0.7 1 0.6 0 0.4 0.6 0.4 0.7-0.8 1.3 0.5 1.1 0.5 0.8 0.8 1.7 0.6 1.4 0.2 0.6-0.9-0.4-0.2-0.8-1 0.2-0.6 1.8 0.4 0.2 0.6 1-0.6-0.1 1.1 0.9 0 0.3-0.4-0.3-0.7-0.1-1.6 0.5-0.1 0.2 1 1-0.5-0.3-1.7 0.2-0.8-1.1-0.5 0.3-0.6-0.7-0.4-0.5-1.1 0.4-0.6 1 0.4 2 0-0.6 1 0.8 0.3 0.6-0.5 1.2 0.3 1.7 0.9 0.6-0.6-0.6-0.4 0.3-0.5 0.8 0.2 1-0.4 0.2-0.9-0.6-0.2 0.5-1.1-0.5-0.1 0.2-1.2 0.9 0.5 0.6 0.6 1 0 0-0.7 0.4-0.7 0.8-0.3-0.6-0.6-0.2-0.5 1.6 0 0.4 0.3 1.7 0.1 0.2-0.9-0.8-1.1-1.2-0.3 0.4-1.3 1.1 0 0.9-0.8 0.1-0.9 0.6 0.2 1-0.6 0.2-1.1 1.2-1.9 0-0.6-0.3-0.5 0-0.7 1-1.4-0.7-0.9 0.1-0.9-0.2-1.7 0.5-0.5 0.5 0.6 0.8 0.3 0.6-0.4 0.8 0 0.1-0.7 0.6-0.5-0.3-0.7 0.4-1.9-0.9-0.6 0.4-0.4 0.1-1.2-2.1-0.6-0.7-1.1 1.1 0.2 0.5-0.5 1.1-2.6 0.5-0.4 1.9-1 0.2-0.6-0.1-1-0.3-0.5-1.9-1.8-0.1-0.5-1.3-1.6-1-0.6-1.5-0.7-0.7-0.9 0-2 0.6-2.6 1.4 0.6 0.1-0.3-0.3-0.8 0.9-0.7 0.2-1-0.2-0.7-0.7-0.2-1.7-1.3 0.3-1.3-0.8-0.2-0.1-0.7 0.8-2 0.8 0.5 0.6-0.4 0.2-0.7 1 0-0.1-0.5 0.4-1 1-0.1 0.1-0.5 0.7-0.6 1.1-0.1 0.8 0.8 0.3 0.5 0.6 0.4 0.3-0.3 0.6 0.6 1.2 0.2 0-0.4 0.1-0.4-0.1-0.1-0.1-0.1-0.3-0.9-0.3-0.2-0.3 0.1-0.4-0.8 0.1-0.2 0.2 0-0.3-0.4 0.2-0.7 0.2-0.2-0.1-0.1-0.2-0.1 0.4-0.2 0-0.2-0.1-0.2 0.2-0.7-0.3-0.1 0.3-0.3 0.1 0 0.1 0-0.2-0.3 0.2-1.1 0-0.4-2.4-1-1.2-1-0.2-0.5-1.3-0.9-0.1-0.7 0.5-0.6-0.8-0.7 0.8-0.7-0.9-0.5-0.5 0.2-1.6-0.4-0.3-0.6 0-1-0.3-0.6 0.7-0.1 0-0.4-0.1-0.2 0.1-0.2 0.1-0.4-0.1-0.8 0-0.3 0.2-0.4 0.3-1.1 0.3-0.5 0.9-0.8 0.4-0.2 0.1-0.4 0.1 0.1 0.8-0.4 0.1 0.5 0.4 0.3 0.2-0.6 0.7 0 0.3 0.1 0.2-0.1-0.1-0.3-0.5-0.4 0.5-0.3-0.1-0.6 0-0.2 0-0.3-0.1-0.4 0.6-0.4 0.5 0.7 0.3-0.1 0.3 0.1-0.1-0.5 0.8-0.6 0.1-0.3 0.7 0.2 0.4-0.1 0.1-0.4 0.5-0.3 0.1-0.3 0.1-0.2 0.3-0.2 0.1-0.1 0.4-0.3 0.1-0.2 0.2 0.1 0.4-0.7 0.7-0.5 0.2 0 0.4-0.2 0.3-0.5 0.7-0.1 0.3-0.1 0.3-0.3 0.2-0.3 0.1-0.5 1.2-1 0.1 0.1 0.1 0.1 0.2-0.6 0.4-0.2 0-0.2-0.3-0.1-0.4-0.7-0.5 0.1-0.3 0-0.5-0.4 0-0.3 0.8-0.8-0.1-0.7-0.3-0.6-0.5 0.1-0.2-0.8-1-0.2-0.5-0.8 0.5-0.6 1.4-0.9-0.1-0.7-0.8 0.6-0.7-0.3-0.6 0.2-0.1 0.6-1.2 0.4-0.9-0.9 0-0.2 0.1-0.8 0.5-0.2 0.7-1.5 0-0.7 0.8-0.8 0.1-2 0.5-0.8 0.2-2-0.7-2.5 0.2-1.2-1.2-1.2 0.3-0.8-0.9-1.2-0.1-1.4-1-0.8-0.2-0.8-1.5-0.3-0.8-1.5-0.1-0.8-0.7-0.3 0-1 0.5-0.4 0.3-2.2 0-0.8 1.4 0.2 0.6 0.6-0.3 0.3 0.6 1 0 0.9 1.8 1 0.7 0 0.7-0.7 1.2 0 0.6 0.5 1.6-0.4 0.7 0.1 0.2 0 0.6 0.5 0.1 0.4 0.7-0.1 0.2 0.3 0.7 0 1.3 0.4 0.8 0.3 0.7-0.3 0.4-0.9 1-0.5 0.9-0.9 0-1 0.7-0.3 1.7-0.4 0.9 0.2 0.7 0.8 0.7 0.2 0.9-0.7 0.9 0.6 0.2 0.8 0.5 0.3 0.7-0.5z" fill="#8B5CF6" opacity="0.5" stroke="#8B5CF6" stroke-width="1.5" />
  <path class="state-highlight" d="M566 701.8l0.9 0.1 0-0.4 0.8-0.2-0.7 1.2-1-0.7z m52.5-35.1l0.8 0.5 0.2 0.6-0.6 0-1.2-0.4 0.8-0.7z m20.5-26l0.7 0.2 2.5 0 0.9-0.2 0.6 1-0.2 1-0.7 0.1-1.5-0.1-1.5 0.8-1.3 1.4-0.5 0.1-0.1-0.4-0.3-0.3-0.9-0.1 0.7 1.1-1.3 0.1-0.3-0.3 0.9-1.2 0.1-0.8 0.4-0.4 0.5-1.6 0.6-0.5 0.7 0.1z m0.4-0.6l2.1 0.3-2 0.3-0.1-0.6z m-5.4-52.4l-0.3 1.4 0 1.3 1.3-0.1 1.3-0.3 0.3 0.3 0.2 1.1 0.6 0.1 0.3 0.6 0.6-0.1 2 0.5 1.7 0.1 1.3 1.4 0.8 0.1 0.2 0.5-0.1 0.6 0.4 0.9-1 1.7-0.2 1.3 0.7 0.8 0.4 0.7 1.6 0.2 0.6 0 0-0.8 0-0.2-0.2-0.2 0-0.1 0.1-0.1 0.4-0.7 0.2 0 0.2-0.2 0.5 0.2 0.7-0.4 0.3-0.1 0-0.7 0.3-0.9 0.2 0.3 1 0.4 0.6 0.1 0.1-0.1 0.4 0-0.1 0.5 0.1 0.3 0.6 0.6-0.6 0.8 0.5 1.1-0.2 0.3 0.4 0.5 0.2 0.4 0.2 0.5-0.2 0.2 0.4 0.3 0 0.1 0.2 0.1 0.5-0.1 0.1 0.3 0.3 0 0.4 0.2 0.2 0.1 0.1 0 0.2 0 0.2 0.3 0.1-0.2 0.5 0.2 0.5 0.4 0.4-0.1 0.4 0.1 1.1 0.1 0.5 0 0.1 0.2 0 0.6 0.3 0.3-0.3 0.1 0.7 0.2 0.1 0.1-0.1 0.3 0.2 0.6-0.1 0.2 0 0.6-0.2 0.8 0 0.4 0.7 0.7 0 0.5 0 0.1-0.9 0.5-2.5 1.7-2.7-0.2-2.1 0.1-1.2 0.2-1.8 0.8-1.4 0.6-1.6 1.7-0.4 0-1 0.9-1 0.7-1.7 1.7-1.3 1.6-0.5 0.5-0.3 0.8-0.5 0.6-0.8 1.5 0 0.6-0.8 1 0.2 0.6-0.1 1.4 0.6 1.9 0.5 1.1 1.1 1.5 0.3 0.6 0.4 1.6 1.7 3.3 0.3 1.4-0.4 1.5-2.6-0.4-1.6 0.7-0.6 0.6 0 1.3-0.5 0.6-0.5 1.2-0.7 1.1 1.4 0.1 0.5-0.1 0.1-1 0.4 0.6 0.2 0.2 0.2 0 1.8-1.6 1.2-0.6 1.1 0.1 1.3 0.4 0.7 0.1-3.7 2.5-1.6 1-3 2.3-0.5 1.2-0.4-0.1-0.5 1.3-0.3 0.6 0 1.8 0.5 0 1.1 0.6 0.3 1-0.7 1.1-1.2 0.8-0.9 0.4 0.3 0.4-1.4 0.7 0 0.3-2 0.8-1.2 0.7-1.6 0.6-0.9 0.9-0.7 0.3 0.2 0.5 0.7-0.7 0.3 0.1-1.6 2.6-2.1 2.1-0.3 0.8 0.1 0.7-0.8 0.9-1.3-0.2-0.3-0.3-0.4-1.5-1.2-0.9-1-0.2-0.5 0.3-0.3 0.8 0.5 0.4 1.4-0.2 1.1 1.7 1.2 0.9-2.3 0.7-2.3 1.2-3.3 1.1-1.2 0.4-1.7 0.3-0.1 0.2-3.1 0.6-3.7 1-5.6 2-3.4 1.8-1.7 0.8-1.3 0.8-2.5 1.1-2.8 1.6-1.5 0.9-5.3 4-1.1 1-0.7 1.1-0.9 0.8-2.5 1.6-1.8 1.5-1.6 1.4-1.5 1.5-1.3 1.8-0.3 0.7-0.6 0.7-1.1-0.3 0-0.9-0.8 0.1-0.7 0.8 0.6 0.8-0.8-0.5 0.1 0-0.2-0.5 0.1-0.1 0.2-0.9-0.2 0-0.5 0-0.6-0.2 0.1 0.8-0.2 0.4-0.5 0.1-0.6 0-1.1 0.2 0.3 0.8 0.4 0.1 0.2 0.6 0.4-0.1 0.3-0.3 0.7 0.7-0.3 0.5-0.3-0.2-0.4 0-0.2 0.3-0.1-0.2-0.1-0.1-0.4 0.2-0.1 0.2-0.3 0.5-0.4 0.7-0.5-0.8 0.2-1-0.3 0.1-0.1-0.2-0.3 0.2-0.4 0.5-1.3 0.3-0.4 0.4-0.3 0.2-0.4 0.5 0 0.5-0.2 0.4-1.1-0.6-0.6-0.4 0-0.1-0.2 0 0.3 0.6 0 0.2 0.1 0.2 0.3 0.3 0.2 0.3-0.9 1.1 0.5 0.9-0.7 0.8-0.8 0.3-0.8 1.1-1-0.4 0.4 1.8-0.5 0.1 0.1 0.6-1.1 0.4-0.6-0.3-0.8 0.6-0.5 0-1-0.5-1.2 0.7-0.7-0.2-0.9 0.3-1.5 0.7-0.8-0.2-0.6-1.1-1.4-0.8-0.9 0.2-1.7-0.3-0.8-0.3-1.3-0.1-0.2-0.7-0.7-0.5-0.3-0.8 0.2-0.5-0.2-0.8-0.8-0.9 0.1-0.5-0.9-2.1-1.6 0.8 0.3 1.5 0.4-0.1 0.5 1-0.2 0.6-0.9-0.6-0.6-2.1-0.7-0.3-0.2-1.1-0.6-1-0.9-1.2 0-0.4-0.4-1-0.9-1-0.8 0.8 0.3 1-0.8 0.6-0.1 0.9-0.9 0-0.6 0.8-0.1 0.8-1.2-0.2-0.1-0.5 0.7 0-0.3-1.4-0.4 0.4-0.5-0.8-0.6 0.2 0.2 1.2 0.4 0.4-0.1 0.9-0.9 0.1 0 0.6 0.5 0.8-0.7 0.4-1-1.1-0.2-0.6-0.7-0.2-0.9 0.2-0.2-0.5-0.7 0.1-0.2 0.7-0.7-0.1 0.2 0.8 0.4 0.4 1.2 0.1 0.1 0.9-0.6 0.3 1.4 1.8 0.8 0.4-0.5 0.4 0.1 0.6-0.9 0.4-0.4 0.5-1.3 0.3-0.6 0-0.9 0.3-0.4 1.2-1-0.1-0.5 0.4-1.3 0.2-0.6-0.6-0.6 0.1-0.6-0.5-1.5 2.1-0.4 0.3-0.9 1.8-1.3 0.6 0.3 1.2-0.5 0.6 1 0.4-0.4 0.5 0.3 0.5 0.6 0.5 0.7-0.3 0.6 0.4-0.5 0.6-0.8 1.4-1.2 1.1 0.7 0.4 0.2 0.6 0.8 1-0.3 0.5-0.6 0.2-0.9-0.2-0.7 0.1-0.5 0.7-0.6-0.1-0.9 0.2-0.2-0.3-0.9 0.2-0.6-0.9 0.2-0.4-0.2-0.8-0.5 0.2-1.7-0.9-0.7-0.2-0.8 0.7 0.4 1-0.3 0.7 0.2 0.6-0.6 0.9-0.5 0.1-0.6 0.5-1.1 0.2-0.1 0.4-1.2 0.2-0.7 1.2 0.1 0.5-0.5 0.5-0.8-0.7-0.7-0.3-0.1-0.8 0.2-1.4 0.3-1.7-1.5-0.8-0.7-0.1 0-0.6 0.6-1.1-0.8-0.2-0.5-0.4 0.4-0.5-0.1-1.3-0.9 0-0.5-0.4-0.3-0.8-1.3 1.5-0.3 0.7-1 0.9-0.7 1.1-0.5 0.4 0.7 1.4-0.2 0.7-0.6 0.3-0.5 0.8 1.3 0.1 0.3 0.4-0.3 0.8-0.5 0.5-1.1 0.2-0.2 1.2 0.1 0.6-0.9 0.7 0.1 0.8 1.3 0.4 0.6 0.8-0.3 0.6-0.8-0.7 0 1.8 0.3 0.4-0.2 1.3-0.5-0.2-0.6 0.4-0.6-0.7-0.7 0.4-0.3 0.5 0.5 0.9-0.2 0.8-0.8 0.3-0.2-0.5-0.6 0-0.8-0.6-0.6 0-0.5-1.1-1.1 0.2-0.1-0.5-1.2-0.1-0.7-0.5-0.4 0.7-0.5 0-0.7-0.4-0.8 0.4 0 0.8-2.3 1.4-0.7 0.2-0.5 0.4-1.8 0.6-0.5 0-1.1 0.5-0.5 0.9-0.9 0.7-1.9 1.1-0.5-0.8-0.9 0.3-0.6 0.7-0.1 0.6-1.1 0.9-1.2-0.5-0.7 0.4-2.5 0.5-0.4-0.7-1.1 0.3-0.4-0.2-0.6 0.6-0.8-0.1 0-0.7 0.5-0.7-0.3-0.5 0.2-1 1.4 0.4 0.4-1-0.2-0.7 0.4-0.8 0.7-1 0.1-1.1-0.1-0.9 0.2-0.7 0.9-1.6 0.1-1.3 0.4-1-0.6-1 0.7-1.8 0.1-0.9 0.7-0.1 0.7-0.4 0.8-1 0.8 0 1.5-0.5-0.1-0.8 3-0.3 0.6-2.3 1.2-1.1 1.8-1.7 0.4-1 0.7-0.5 0.5 0.1 0.1-1.1 1.6-0.1 0.3-1-0.9-0.3-1-0.8-0.4-0.1 0.2-1.2 0.7 0.7 1.1 0.2 0-0.9 0.5-0.5-0.2-0.4 0.7-0.6 0.5-0.1 0.9-0.5 0.6-0.2 1.5 0.2 0.4-1.6 1.9-0.6 0.5-0.6-0.2-0.3 0.3-1.1-0.2-0.8 0.4-0.9 0-0.5 1.5-0.8 0.9 0.1-0.6-4-1-1.4 0.5-0.7-0.6-1.4-0.7-0.6 0.3-0.9-0.2-0.9-0.6-0.5 0.2-0.4-0.3-0.5 0-1.6 0.6-0.9 0.4-1.5-1.3-0.5-0.1-0.7 0.9 0 0.3-0.4 0.3-1.3-0.5-0.6-1.7 0.2-0.8-1.3 0.2-0.5-0.4-0.7 0.1-0.6-0.8-0.2-0.3 0.4-1.3 0.1 0.8-1.3-0.1-1-0.3-0.7 0.6-1.5-0.2-1.6-0.3-1.2 0.2-1.3 0.5-0.5 0.1-1.1-0.3-0.3-1.8-0.3-0.7 0.1-0.7-1.4 0.1-0.7-2.2-0.9-1.3-0.7-0.4-0.6 0.1-0.9-0.4-0.4 0.3-0.7 0.4-1.9 0.5-0.9 0.5 0.1 1.6-2 0.3-0.1 1 1 0.7 1 0.7 0.2 0 0.8 1.2-0.6 0.3-0.5 2 1.4 0.5 0 1.2 0.6 0.6 0.5 0.7 0 0.9-0.6 1.1 0.9 0.2 1 0.9 1.7 0.1 0.5 0.7 0.9 0.3 0.8 0.4 0.3 1-0.9 0.7-1 0.9-0.5 0.9-0.3 0.6 0.3 0.6-0.2 0.7 0.6 1.1 0.1 0.5 0.5 0.8-0.1 1 0.4-0.9 1.2 0 0.9 0.3 1 1.4-0.4 0.9-1.4 1.8-0.1 0.4-0.8-0.4-2.1 0.3-1.4 0.1-1.4-0.4-0.3-1.7-0.3-0.9 0.1-0.3 0.4-1.1-0.1-0.2-0.3-1.1-0.5-1.4-0.1-0.9-0.6-1.2-0.2-1.6-0.5-0.1-0.4 0.1-1-0.1-1.1-0.4-0.9 0.1-0.6 0.8-0.7 0.2-0.8-0.3-1.4 0.1-0.9 0.7-0.5-0.2-1.1-0.9-1 0.1-0.7 0.4-0.8 0-0.9 0.5-0.3 0.2-0.6-0.4-0.4 0-0.7-1 0.1-0.3-2-1.1-0.5-0.2-0.6-0.6-0.5 0.6-0.8-0.1-0.7 0.6-0.4 0.4-0.9-0.1-1.2-0.5-0.6-0.3-0.7 0.1-1.1-0.3-1.1 0.1-1.2-0.2-1.8 0.5-1.6 0.7 0.7 0.5-0.2 0.6 0.3 0.2 0.9 0.3 0.4 0.7-0.1 0.6 0.3 0.2-0.5 0.6-0.4 0.3-1-0.1-1 2.4-1.5 1-1.7 0.8-0.7 0.6-1.1-0.5-1 0.6-0.5 0.6-0.9-0.3-1.2 0-0.5 0.9-0.1 0.8-0.2 0.5 0.1 0.7-0.2 1.3 0.1 0.8 0.6 1.1-0.6 0.9-0.2 1.3 0.5 0.8-0.5 0.7 0.2 0.7-0.2 0.5-0.5 0.3 0.8 0.5-0.1 1 0.4 1.1 1 1 0.4 1.7 0.3 0.4-0.2 1-1 1-0.2 0.6-2.3 0.3-0.8-0.1-1 0.3-0.6 0.6-0.4 0.9 0.3 0.2-1-0.5-0.2-0.1-1.1 0.4-0.5 0.1-1.1 1.3 0.4 2.3 0.9 0.9-0.3-0.3-0.5 0-1.4-0.4-0.3-0.4-1-0.7-0.3-0.3-1.5 0.5-1.9 0.4-0.5-0.2-0.8 0.2-0.9 0.5-0.6 1.1-0.9 0.9-0.4 0 1.1 0.8 0.5 0.2-0.8 0.5-0.5-1.5-0.6-0.7-0.7 0.4-0.7 0.8 0 1-1.7-0.3-1.2 0.5-1.3 1.1 0.5 0.5 0-0.2-1.4 0.9-0.1 0.6 0.2 0.3-0.8-0.4-0.7 1-1.5-0.5-0.5-1.1-0.2 0.1-0.5-0.8-0.7 0-0.5 0.5-1.1-0.5-0.6 0.2-1.2 1.5 0 0.6-0.4-1.5-1.2 1.7-2.2 0.4-1.4 0.9-1 0.4 0 1.2-0.8 1.8 0.2 0.9-0.6 0.3-0.7 0.6-0.5 0.8-0.3 0.1-0.7 0.7-0.4 0.6-0.6 1.2 0.1 0.6-0.7 1.8 0.1 1.2-0.5 0.4-1.3 0.9-1 0-1.2-0.6-0.3-0.3-0.4-1.3-0.7 0-0.6 0.9-0.1 1.9 0.4 0.7 0.8 0.9 0.6 1.1 0.2-0.1 0.8 0.1 0.9 0.5 0.8 1.1 0.6 0.3 0.4 1.8 0 0.7 0.9 0.8 0.4 1.2 0 1.6-0.4 0.8 0.2 1.1-0.3 0-0.5 0.7-0.5 0.9-0.2 0-0.7 0.9-0.5 1.5 0 1-0.2 2-0.3 1 0.6 2.8 0 0.3-1.1 1.7 0 0.4 0.4 0.8 0.2 1.4-0.6 0.1 1 0.9-0.1 0.3-0.6 1.2-0.6 0.3 0.3 3.1-1.3 0.8 0.2-0.1 0.6-0.5 0.4 0.2 0.8 0.4 0.4 0.3 1.3-0.3 1.1 0.6 0.3-0.2 0.9 1 0.1-0.3 0.8-1.2 0.7 0.1 0.8-0.2 0.8-0.7 1.6 0.1 0.2-0.9 1 0.2 0.6-0.2 0.9-1.5 0.8 0.2 0.5 0.5-0.1 0.6-0.9 0.9-0.2 0.8 0.1 1 0.4 0.1 0.4 0.6 0.7 0.8-0.3 2.4 1.2 0.1 1.2 0.5 0.3 0.4-0.4 1.1-2.5 1.7-1.7 1.3 0.1 0.1-1.1 1.6-0.1 1.6 0.8 1 0.7 0.6 0.1 1.1 0.7 1.5 0.5 0.3 0.2 1.4-0.3 0.5-0.3 1.2 1.6 0.3-0.3 1.1-0.1 0.8-0.4 0.4-0.6 1.2-0.5 0.4-0.4 0.9 1.2-0.5 0.3-0.9-0.3-0.6 1 0.3 0.5-0.8 1 0.1 0.7 0.8 0.4 2 0.1 1.8 0 0.6-1 0.6-0.6 0.5 0 1.1-1.9 0.1-0.4 0.8-1.1-0.3-0.7 1.1-2-0.3-0.5-0.8-0.6-0.8-1 0.5-0.9 1.1-1.4-0.4-0.4 0.5-0.5-0.9-0.3 0.8-0.9 0.1-0.7-0.4-1.6-0.5 0.1-1.4-1.3 0.5-0.9 0.1-0.7 0.9-0.3 1.1-1-0.4-0.3 0.7-0.7 1.1 0.7 1.1 2 1.5 0.4 1.9 0.3 0.6 0.8 1.6 0.3 0.5-0.2 0.2 0.8 1.1 1.2 0.2 0.7 0.5 0.3 0.5 0.7 0.7 0.3 1.7 1.2 0.5-0.7 0.7 0.1 1.4-0.7 0.3 0.6 0.5 0.2 0 0.6 1 0.3 0.9-0.1 0.4 0.6 0.8 0.2 1.1 0.5 0 1 0.8-0.1 0.4 0.7 1.4 0.1z" fill="#A78BFA" opacity="0.45" stroke="#A78BFA" stroke-width="1.5" />
  <path class="state-highlight" d="M396.3 334.9l0.4-0.1 0.6 0.6 0.1 0.3 0.4 0 0.1 0.2 0 0.2-0.3 0.2-0.2 0.4 0.2 0.3 0 0.2-0.1 0.4-0.1 0.2-0.2-0.2-0.2 0.6 0.7 0 0.1-0.2 0.2-0.1 0.1 0 0-0.3 0.3-1 1.1 0.3 0.7 0.3 0 0.3-0.8 0.1-0.2-0.1 0 0.7 0.7 0.3 0.4 0 0.5-0.2 0.2 0.1-0.4 0.5 0.1 0.2 0.3 0.3 0.4 0.4 0.2 0.4 0.2 0.8 1 0.6 1.2 0 0.9-0.8 0.9-1.8-0.5-0.6 1.1-1.4 0.5 0.2 0.1 0.2 1.5-0.1 1.8 1.8 1.6 1 1.1-0.1 0.5 0.6-0.3 0.5 0.8 0.8 0.5-0.1 0.8 0.5 0.3 1.3 1.2 0.8 0.4 0.6 1.4-0.4 0.8 0.2 0.8 0.6 0.4 1.1 1.2 0.9 0.5-0.3-0.6-3.5 1.2-1 1 0.1 0.7 0.4-0.3 0.7 0.9 0.3 0.2 0.5 1.3 0.2 0.6-0.3 0.4 0.9-0.1 0.6 0.4 0.7 0.9 0.7 0.8-0.2 1 0.3 0.1 0.6 0.7 0.3-0.2 0.5 1 0.3 1.4 1 0.7-0.5 1.1 0.4-0.2 0.5 0.1 0.8 1.3 0.4 1.2 0.8 0.7-0.8 0.5 0.7 0.7 0.4 0.4 0.6 1.2 1 4.4 1 0.8 1.4 0 1.3 1.6 2.1 1.4 1.5-0.1 2.5 0.5-0.3 1.3-0.1 0.1-1.3 1.3 0.1 1.2 0.5 0.1 0.8 1.2 0.9-0.2 1.3 2.3 1.3 3.3 2.2 2 0.3 3.5 3.2 1 0.2 1.4 1.1 0.9 0.6 0.9-0.2-0.1-0.6 1.5-2.1 0.8 0 2.7 0.2 0.7 1.1 1.1 1.2 1-0.1 1.9 0.9 0.8 0.9 0.7 0.4 1.7 1.4 2.2 1.2 1.2 1.5 1.6 0.9 0.8 0.1 1.5-0.5 0.9 0.2 2.1-0.8 0.5 0.1 1.6-0.5 1.4 0 0.4 1.1-0.1 1 0.8 0.8-0.2 0.9 0.8 1.1-0.6 1.6 0.4 1-0.5 0.7 2.3 0.3 1.1-0.2 1.2 0.1 2-0.1 0.9 1.3 2.7 0.7 4.5-0.3 0.8 0.1 0.7 1.1 2.1 1.6-0.2 0.7 1 1.2 1.3 0.1 0.7-0.3 1.2-1.4-0.1-0.5 0.7-0.6-0.8-1.4 0.7-0.6-0.5-0.9 7.7 0.4 7.4 3.8 0.9 0.8-0.3 0.6-0.7 0.3 0.9 0.6 1.1-0.6 0.7-0.1 0.5 0.5-0.2 0.9-0.7 0.6 0.2 1 0.2 0.1 1.3 0.4 0.5 0.4 0.1 0.3 0.4 0.6 0.3 0.9 0 0.1-0.6 0.5-0.6 0.9 0.1 0.4-0.1 0.2-0.3 0.2 0 0.7 0 0.5 0.2 0.1 1.1-0.2 0.9-0.5 0.3 0.2 0.2 0.3-0.1 0.3-0.9 0.6 1.1 0.9 0.4 0 0 1 0.3 0.6 0.2 0.5-0.4 0.2 0.2 0.2-0.1 0.5 0.2 0.2-0.3 0.2-0.1 0.3-0.1 0-0.2 0.2 0.1 0.1 0.6 0.4 0.1 0.6-0.2 0.2 0.1 0.2 0.1 0.1 0 0.1 0.3 0.3 0.6 0.5 0.4-0.2 0.2 0.2 0.2-0.4 1.1 0.1 0.3 0.1 0 0.4-0.3 0.7 0.7 0.6 0.6 0.2 0.2-0.5 0-0.2 1.2-0.7 0.4 0 0.5 0.2 0.3 0.2 0.2 0.8-0.3 0.7 0.2 0 0.1 0.5-0.1 0.6-0.3 0.6-0.5 0.7 0.6 1 0.4-0.1 0.4-0.3 0.4-0.3 0.7-0.1 0.3 0.6 0.4 0.8 0.2 1.1 0.4 0.2 0.5 0 0.5 0.1 1.3 0.3 0 1.1 0.4 0.6-3.1 0.5-0.9-0.1-0.9 0.7-2.4-1-1.2 0-0.5-0.5-1.6 0-0.8-0.1 0.1 1.1-1.2 1.9-0.1 0.7-1.6 0.7-0.9-0.3-0.3 0.8-1.2-0.5-0.9 0.3 0.1 0.4-0.1 2.2 1.5 0.4 1.2 0.1 0.3-0.4 0.9 0.2 0 0.4 0.7 0.9 0.6 0.2 0.2 0.4 1.9 0.2 1.9 0.5-0.2 1.3 0.5 0.8-0.3 0.5-0.1 1.2-0.4 0.5-1.5-0.1-0.1 0.8-0.6 0.1-0.7 0.5-1.3-0.2-1.1 1.6 0 0.4 0.9 0.6-0.4 0.7 0.9 0.5 0.2 1.2 1.4 0.1 0.9 0.8 0.7 1.1 1 0.8 0.2 1 0.7 0.4 0.3-0.4 1.3 0.6 1.8 1.4 0.7 0 1.3-0.5 1.2 0.8 0.8 0.3 0.7 1.5 1.9 0.1 0.7 0.6 0.8-0.2-0.1 1.7 0.7-0.3 1.4 0.8 1.1 1.1-0.7 1.2 0.9 0.7-0.5 0.4-0.5-0.3-1.4 0.1 0.1 1.3-0.2 0.7-0.7-0.4-0.6 0.6-0.9-0.5-0.8 0.2-0.6-1.1-0.8 0.1 0 0.7-0.8-0.2-0.2-1.1-1.4-0.6-1 0.3-0.2 2.4-1 0.4-2.5-0.1-0.6-0.3-0.2-1.2-0.9-0.6-0.6-0.2-1.4 0.1-0.9 0.4-0.4 0.6 0.3 1.7-0.1 0.5-2.1 0.9-2.4 1.8-0.8 0.2-0.9 1.4-0.7 0.2-0.1 0.6-0.7 1.1-0.6 0.4 0.2 1-1.2 0.2-0.2 0.9-0.5 0.4-1.2-0.2-1.3 0.3-0.8 1-1 0.2-1.3 1.3-0.3-0.1-1.3 0.5-0.9 0.2-1.3 1-0.9 0.2-0.7 1.1-0.6-0.3-1.2 0.4-0.7 1.6-0.9 0.4-0.4-0.1-0.2 1.5 0.3 0.4 0 1.5-0.4-0.1-0.6 2.4-0.2 0.4 0.1 0.8 0.8 0.2 0 1.8 0.5 0.3 0 1.6-0.2 0.4 0.5 1.5 0.8 1.1 0.2 0.8-0.3 1 0.8 0.4 0.8 0.7 0.6 0.9 1-0.2 0 1.2 0.3 0 0.8 1-0.5 0.4 0 0.6 0.6 0.4 0.6 1-0.6 0.5 0.3 0.6-0.3 1.4-0.8 0.2 0.2 0.6-2.5 0.5-1.1 0.5 0 0.8-0.4 0.9 0.6 0.7 0 0.9 1 0.3 0.5 1.2-0.3 0.9-1.1 0.4-0.9 0.9 0.7 0.8 0.2 1-0.9 1.3 0.1 1.1-0.7 1.7-0.3 1.1-0.9 1-1 0.9-0.6 1.1 0 0.9-2.1 1.2-0.1 1.1-0.8 1.5-1.5 0.4-0.6 0.8-1.4 0.4-0.8 0.1-0.9-0.3-1.8 0.2-1 0.2-0.5-0.1-0.5-0.6-1.5-0.7-0.6-0.6-0.5-0.8-1-0.6-0.4 0-0.3-0.5 0.1-0.9-1.9-0.4-0.2-0.7 0.5-0.5 0-1.1-1-0.3-0.6 0-0.2-0.6-1.3-1-0.2-0.4 0.4-0.9 0.6 0.6 1.1 0.2 0.1-0.7 0.5-0.4-0.4-2.1 0.8-0.5 0-1.2 0.5-0.9-0.1-1 0.1-1.1-0.1-0.9-1.4 0.1-0.4-0.6 0.2-1.1 0.4-0.4-0.1-1.9 0.5-0.9-0.7-0.5 0-1.6 1 0.6 1.9-0.5-0.2-1.7-0.9 0.1-0.1-1.7-1.3-0.2-0.9 0.2-0.4-0.3 0.2-1-1.1-0.9-0.9 0.5-1.7 0.5-0.5 0.4-1.5 0.4-0.4-1-1.1 0.1-0.3-0.3-1 0.2 0-0.4-0.5-0.6-0.4 0-0.7 0.8 0.4 1-0.3 0.8 0.2 1.5-1.7-0.2-0.5-0.6-0.5-0.2-0.7 0.4-0.4-0.6-0.2-1.4-0.8-0.6-1.4 0.3 0-0.6 0.5-0.5-0.1-1.9-0.4-0.4-1.1 0 0.4-1.3-1.2-0.1-0.4 0.3-1-0.4-0.7 0.4-0.4-0.6-0.6-0.5-0.6 0-2-1.1-1.4 0.4-0.1 0.4-1.2-1.1 0.1-0.5-0.9-0.4-0.1-0.8 0.4-0.6-0.3-0.8 0-1.5-1-0.8-0.9-0.1-0.6-0.5-1.3 0.3-2.6-1.6-0.3 0.6-0.8-0.2-0.2-0.8-1-0.4-0.9 0.7-0.9-0.8 1.2-1-0.5-0.7-0.8 0 0-0.5 0.9-0.7-0.5-0.4-0.8-0.1 0.2-0.6-0.7-0.5-1.1 0.4-0.7-0.1-0.1 0.6 0.6 0.2-0.3 0.6-0.9 0.1-0.5 0.4 0 0.7 0.5 0.4 0.1 1-0.4 0.3-1.6-0.8 0-0.7-0.3-0.7-1.3 0.3-0.8-0.7-0.6-0.9-0.7-0.2-2.1 0.3 0.3 0.4-0.6 0.5 0 0.9-0.4 0.4 0.4 0.7 0.1 0.7-0.5 1.1-0.9 1.3-0.6 0.4 0.3 0.7-0.4 0.2 0.2 1.2-1.5-0.7-0.2 1-0.5 0.6-0.5 0.8-1.3-1.1-0.4-1.1-1.7-0.1-0.9 0.6-1.6 0-0.6-1.2-1.3 0.6-0.3 0.3-1.1 0.4-1.2 0-0.7-0.3-0.1-1.1 0.7 0 1.1-1.1-0.8-1 0.4-0.8 1.1-0.8-0.3-0.6 0.3-0.5-0.2-0.8 0.7-0.7 0.6-0.9-1.2-0.9-1.1-0.1 0.2 0.9-0.4 1-0.4 0.4-0.7-0.6-0.6 0.4-1-0.2-1.2 0.5 0.1 0.9 0.9 0.2 1 0.5 0 0.9-1.4 0-0.2-0.4-1.9 0.7 0.2-1.1-0.9 0.2-0.4-0.6-1.1-0.2 0.5-0.9-1-1.2-0.2 1.7 0.6 1.3-0.9-0.5-1.2 0.8-0.9-0.6-0.3-0.7-0.7 0.4 0.5 1.1-1.1 0.6-0.4-0.9-0.6-0.5-0.6 0.4-1 0-0.5 0.6-0.4 1.2-1.4 0.8-0.5 0-0.8-0.7-0.8-0.3 0.5-1.3 0.8-0.4 0.6-1.2 0.9-0.9 0-0.4 1.3-0.8 1-0.1 0.3-0.3-0.8-1.8-0.1-0.8-0.7 0.2-0.7-0.5-0.5-1.1-1-0.1-0.3-0.6 0.2-0.5 0.1-0.9-0.3-0.9 0.3-0.5-0.1-0.8-1.2-1.2-0.6-0.2-0.4 0.9-0.5-0.2-0.6 0.3-0.8-0.1-0.1 0.8-0.9 0.3 0 0.4-0.8 0.4-0.3 0.6-1.5-0.6-0.5 0.5-1.7 0-0.3 0.7 0.1 0.8-0.7 0.5 0.1 0.7-1.6 0.2-1 0.6-0.9 0.1-0.7-0.2-1 0.6 0.6 0.7-0.3 0.6 0.3 1 0 0.7-0.7 1.5 0.5 0.7-1 0-2-1-1-0.7-1.1 0.4-1-0.1-0.4 0.3-1.1-0.2-0.5-0.4-0.7-0.1-0.8-0.5-0.2-0.6-0.6 0.2-0.8 1.2-0.5 0.5 0.1 0.9-0.5 0.1-0.4 0.6-1-0.5 0.3-1.3-1.1 0.9-0.1-0.7-0.5-0.3-0.4 0.7-0.6-0.2-0.3-1.1 0.1-0.8 0.7-0.7 0.2-0.7 0.7 0.2 0.4-0.7-0.3-0.8 0.6-0.5-1.7-0.3 0-0.6-1-0.5-0.2 0.9-0.5 0.1-0.1-0.9-0.5-1 0.4-0.6-1.8-0.3-1.1 1.1-0.2 1.2 0.5 0.5 0.6-0.6 0.9 0.8 0.9-0.5 0 1.6-1 0.4-0.6-0.7-0.5 1.1 0.2 0.8 0.6 0.5 0.4 0.9-0.4 0.8-0.7-0.1-0.2 0.5-0.7-0.4 0.2-0.4-0.4-0.8-0.8 0.2 0.4 0.5 0 1-1.4-0.4-0.4-0.9-0.6 0.2 0.4 1.1-1.6 0.2-0.3-0.6-0.5-0.6 0.3-0.7-0.9-0.5-0.2-0.6-0.7 0.7-0.2 0.8-0.7 0.6-0.6-0.3 0.5-1.1-0.4-0.5 1.1-1.5-1-0.3-0.4-0.5-0.1-1-0.9 0-0.5 1.2 0.8 0.4 0.2 0.6-0.6 0.6-0.5-0.6-0.5-0.2-1 0.4-0.8 1.1-0.8 0.7-0.4-1 0.5-1-0.5-0.6 0.2-0.7 0.8 0 0.5-0.9 1 0.4 0.2-0.6 0.9-0.5-0.6-0.7 0.1-1.4-0.9 0.6-1.5-0.6-1 1.2 0.5 0.9-0.3 0.3-0.6 1.9-0.4 0-1-1.4 0.3-0.9-0.7 0.1 0-0.9 0.7 0.2 0.7-0.8 0.1-0.8 1.3-1.3 0.9-0.1 0.5-0.4 0.9-0.1-0.4 1-1.2-0.1 0.1 0.5 1.4 0.5 0.3-0.6 0.9-0.1-0.2-0.9 0.1-0.9-0.4-0.7-0.6-0.1-0.4 0.5-0.9-0.7 0.9-0.9 0.2-0.9-0.7-0.9 0.9-0.5 0-0.8-0.6-0.3-1.3-0.1-0.6 0.7 0.2 0.7-1.4 0.3-0.2 0.5 0.6 0.5 0.4 0.9-0.1 0.6-2.2-1.2-1.1 0.3-1.1-0.6 0 1 0.8 0.6 0.6 0.7 0.8-0.5 0.2 0.6-1.7 0.4 0.4 0.5 0.2 1.7-1 0.3-1-0.3 0.2-0.7-1.8-0.4 0.4-0.6 1-0.9-0.3-0.7-1.1 0.1-0.9 0.4 0.1 0.9-1.1-0.3-0.8 1.5-0.1 0.9-0.7 0.2-0.9-0.7 0.1 1.3-0.2 1-0.7 0.1-0.6-0.7-0.7 0.7-1.3 0.2 0 0.6 0.8 0.4 1.2-0.8 0.6 0.4 0.5-0.2 0.5 0.6 0.6 0 0.5 0.5-0.2 1.1 0.3 1 0.8 1.7 0.1 2.2 0.8 0.3 0.7 1.1 0.1 1-0.2 0.4-0.2 1.5-0.2 0.9 0.9 0.6 0.5 1.6 1 0.3 2.3 1.2 0.6 1.8-0.6 0.7 0 1.1 0.3 2.4-0.5 1-0.6 0.6 0.3 0.9 0.1 1.3 0.9 0.3 0.8-0.5 1-0.1 0.5-0.7 0.6-0.5 0.6 0.1 0.4 1 0.4 0.3 0.3 0.9 1.1 1-0.2 0.4 0.2 1.3 0.7 0.4-0.8 0.5-0.6 0-0.4-0.6-0.4 0.5 0.4 0.9 0.6 0.1 0.5 0.7 1.3-0.2 0.2 0.7-0.3 0.4-0.4 1.7 0 0.6-1.2 1.4-0.9 0.7 0.1 1-1.1 0.7 0.1 1-0.8 0.6-0.6-0.1-0.4 0.5-0.6-0.2-0.2 0.9-0.7-0.1-0.3-1-0.7-1.3-0.3 0.3-0.7-0.5-0.2 0.5-0.7 0.2-1-0.4-0.5-1.1-1.3-0.8 0.2-0.5-0.6-0.3-0.9-1.5-0.9-0.1-0.9-0.6-0.4-0.6-0.5-0.1-0.8 1-0.3 1.1-0.9 0.5-0.2 1-0.8 0.4-0.2 0.4-0.7 0.1-0.8-0.8-0.7-0.5-0.5-1.1 1.2-1.5-0.9-1-0.6-0.2-1.8-1.4-0.2-0.5 0.1-0.8-0.8-0.3 0-0.8-0.7-0.4 0.2-0.7 1-0.4 0.5-2.4-0.4-1.3 0.4-0.7-0.6-1.4-0.8-1.1-0.3-0.9 0.2-0.7-0.5-1.3-0.8-1.2-0.7-0.2-0.1-0.8 0.2-0.6 1-0.4 0.5-0.7 1.5-1 0.2-0.4 0.9-0.6 0.6-0.8 0.7-0.4 0.4-1-0.3-0.7-0.2-1.4 0.3-0.4 1.2-0.4 0.7-0.9 1.2 0.1 0-0.8 0.6-0.4 0.1-0.6-0.9 0-0.5-0.6-0.6-0.2 0.3-1-0.7-0.2-0.6-0.9 0.2-0.6-0.6-0.6 0-0.6-1.3-0.5 0.8-1-0.2-0.7-1-0.4 1.3-1.4 0.1-1 0.4-0.9 0.5 0.3 0.8-0.3 0.3-0.7 0.9-0.3-0.4-1.1 0-0.9 0.6-1.1 0.8 0.4 1.1-1.1 1.5 0.3 0.7 0.3 1.2 0 0.8-0.9 0.5 0.6 1 0.3 0.9-1.1 1.2-0.5 0.7 0.1 2.2-0.5 0.3-0.3 0.2-0.8 0-1.1-0.7-1.3-1-0.4-0.5-0.7 0-0.4 1-0.5 0.8-1.4 0.7 0-0.1-1.2 0.8 0.4 0.1 0.6 0.7 0.1 0.1-1.2-0.8-0.4 0.5-1 0.9-0.2 0.1-0.9-0.3-0.6 0.6-0.4 0.7-0.9 0.9-1.6 0.3-1.3-0.2-0.4 1.3-1.4 0.7-0.3-1.1-1-0.2-0.7-0.7-0.4 0.5-0.7 1.4 0 0.1-0.7-1-0.7 1-0.2 0.5-0.6 0-0.7 0.8 0.1 0.7-0.7-0.5-0.3 0.3-1.1 0.7-0.1 0.7-1.1 1 0-0.3-1.5-1.4-0.3 0.4-0.6-0.3-1 1.3-0.5 0.3-1-1.2-0.5-0.8 0.4-0.7-0.6 0.5-0.9 0-0.7-1.1-0.8 0.1-0.4-1.2-0.6 0-0.9-0.5-0.7 0.8-0.7-0.1-0.6-0.6-0.8 0.5-1-0.6-0.4-1.2 0.8-0.4-0.3 0.4-1-1.5-0.6-1.3 0.3-0.9-0.8-1-1.5-1.7 0-0.7-1-0.7 0.4-0.1-0.7-1.3 0.3-0.7 0.9-1.3-0.3-0.6 0.8-1.3-0.1-1.7-1-1.9-0.4-0.5-0.3-0.6-1.1-1.4 0.1-0.8-1.6-0.7-0.1-2 0.3-0.5 0.6-0.1 0.9-0.3 0.2-1.2-0.6-0.4 0-0.2-1.6 0.8-0.2 0.7-0.7 0.4-1.2-0.9 0-1.5-0.5-1.7-0.4-0.9 0.1 0 1-0.4 0.7-0.5 0.3-0.9-0.5-0.6 0 0 1.2-0.3 0.3-0.7-1.3-0.8-0.1-0.5 0.6-0.4-0.6-0.8 0.5-0.4-0.5-0.7-0.1-0.6 1-0.7-0.6-2.2-0.9-0.6 0.2-0.8-0.6-0.6 0.4-0.8 0.2-0.5 0.7 0.2 0.9-1.5 0.3-0.5 0.6-1.1 0.4-0.5 0.5-1.3 0.1-0.2 0.3-1.5 0-0.3-0.8-0.5-0.1-0.6 2.3 0.4 0.8-0.4 0.5-1.1 0.2 0.5-0.8-0.4-0.5-0.8-0.2 0.4-1.2-0.8-0.9 0.2-1 1-0.3 0.1-0.5 1-0.6 3.3-1 2.1-1.4 1.7-0.5 0.8-0.4 0.7 0.1 0.3-1-0.3-0.8-0.5 0.3 0 1-0.6 0-1.1-1.8-0.5 1-2-0.3-1.3-0.7 0.2-1.2-0.7-0.1-0.6 0.6-0.3-0.8 0.9-1.1 1.8-0.5-0.2-0.4 0.5-0.6 0.3-0.8 0.5 0.2 0.8-0.2 0.7-1-1.1-0.5 0.1-0.9-0.7-1-0.6-0.3 0.1-0.6-0.6-0.5 0.7-0.5 0.1-1-0.8 0.1-0.6 0.4-1.1-0.6-1.5-1.5-1.1-0.1-1.2-0.6-0.5-1 0.4-1.4-1.2-0.8 0-0.8-0.6-0.6-1.2-0.2-0.3-0.6 0-1.2 0.6-0.9-0.8-0.1-0.5-0.6 1.1-1.6-0.3-2.1-1.1-0.2-0.2-0.6 0.5-0.3-0.3-0.8 0.1-1.2-1-0.7 1.3-0.9 0.9-1.1 1.1-0.2 1.4 0.2-0.4-0.9 0.7-0.5 0.7 0.6 0.9-0.6 0.2-0.7-0.2-0.8 1.7 0.1 0.6-0.7 0-0.6-0.9-0.3 0.9-0.8-0.8-0.7-0.2-0.4-1-1.1 0.2-0.4-0.5-1 0.1-0.7 0.9-0.7 0-1.6 1.1-0.3 0.2-0.8-0.5-0.6-0.2-0.9 0.7-0.4 0.1-0.5-0.9 0-1.6-0.6 0.2-0.5 0.7 0.1 0.1-1.1-1-1.3 1-0.6-0.3-0.9-0.6-0.5 0.2-0.8-1.3-0.7-0.4-0.9-0.9-0.1 0-0.5-0.8-0.2-0.5-0.9-0.8-0.4 0-0.3-0.2-0.3-0.6-0.7-0.4-0.3-0.3-1.1 0-0.2 0.6-0.6 0.6-0.2 0.3-0.7-0.9-0.9 0.2-1 0.4-0.8-0.2-0.8-0.2-0.2-0.7 0.2-0.1 0.1-0.3-0.4-0.5-0.7-0.1-0.1-0.4 0-0.1-0.5-0.2-0.2-0.6-0.5-0.3-0.3 0.1-0.3-0.3 0-0.2 0-0.4-0.3-0.1-0.3 0.7-0.4 0.1-0.9-0.4-1.1-0.4-0.1-0.2 0-0.2-0.9 1.2-0.4-0.7-0.8 0.3-0.6-0.5-0.4 0-0.6 0.8-1.8-0.8-0.6-1-1-0.2-1.2-1.1-0.9 0.5-1.3-0.4-0.7 0.5-1.1-0.5-1.8 0.6-0.4-0.5-1.4 0.8-1.7-0.2-1.1-0.9-0.2-0.1-1.1 0.7-0.2-0.5-1.5 0.5-0.8-0.7-0.6 0.2-1.1-0.3-0.7-0.6-0.4-0.4-0.8 0.8-0.8-0.2-0.9-0.6-1 0.8-1.8 0.7-0.4-0.3-0.9 0.2-0.6 0.5-0.2 0-0.6-1-1.3 0.2-1 1.2-0.7 0.1-0.9 0.4-0.5 0-0.7 0.5-1.1-0.1-1.1 0.3-0.8 0.5-0.3 1.6-2.3 0.8-1.8-0.1-0.6 0.9-0.4 1.2-0.2 1.4-1.1 0.7-0.1 0.7-0.6-0.1-1.4 0.4-0.9 0.8 0 0.9-0.8 0.8-1.8 0.8-1 0.4-1.1 1.4-1-0.1-1 0.8-1.3-0.6-0.6-0.4-0.7 2.5-0.3 0.9 1 0.4 0 0.8 1.4 0.4 0.5 1.4 0.5 2.1 1.4 1.8 0.8 0.2-0.2 1.6 0.7 0.4 0.7-0.8 0.9-0.3 1.2-0.8 0.9-0.6 1.2-1.2 1.5-1.2-0.2-0.9 2.1 0.5 0.6-0.7 0.6-0.4 0.9 0 1.4-0.8 0.9 0.5 0.9-0.4 0.4-0.6 1.4 0.9 0.5 0.4 1.7 0.8 1-0.1 1.6 0.2 0.4-0.3 0.7 1.3 0.7-0.2 0.7 1 0.5 0.5-0.1 1.3-1.2 0.9 0.1 0.6-0.5 0.8-0.1 0.2 1.1 0.6 0.6 0.4 1.1 0 1.1-0.8 0.5-0.1 0.5 1.2 0.2-0.2 1.2 1.8 0.1 0.4-0.8 0-0.8 0.5-0.4 0.7 0.1 0.4-1 0.6-0.3 0.9-1 0.2-0.7 0.9-0.1 0.9-1.2 1-0.3 0.3 0.5 2.5-2.1 1-1.5 1.8 0.8 0.9 0.1 0.4 0.4 2.2 0.8 0.7 2 0.1 1.6 0.6 1 1.6 1.7 1.5 1.1 0.7 0.2 1.8 1.6 1.1 0 1.4 0.9 3.4 1 1.2 0.1-0.2 1.3-0.3 0.6-1 0.9-1.5 0.6-1 1.1-0.9-0.3-1.1 0.8 0.1 0.6 1 1.1 1.4 1.1 0.5 0.2 0.6-0.3 1.1 0.4 1.2 1.9 0.2 1.5 1.4 0.5 0.7-0.6 1.2 1.9 0.6 0-0.2-1.3 1.1-0.2 1 0.1 0.9 0.8 0.6-0.1 0.8 0.6 0.1 0.8-0.3 0.7 0.3 0.8 0.7 0.4-0.4 0.9 0.5 0.5 1.2-0.6 1.2 0.9 1.4 1.6 2.4 0.5 0.4-0.7 0.6 1.4 0.8 0.1-0.2 1.8 0.5 1.2 0.8-0.2 0.9 0.1 0.5-0.3 1.1 0.1 0.9-1 0.7 0.4-0.1 1.3 0.9-0.2 0.5-0.6 0.9-0.1 1.2 0.8 0.4 0 0.7-0.7 0.8-0.5 1.8-0.4z" fill="#818CF8" opacity="0.45" stroke="#818CF8" stroke-width="1.5" />
  <path class="state-highlight" d="M541.1 576.4l-0.9 0.1 0 0.6 1.3 0.7 0.3 0.4 0.6 0.3 0 1.2-0.9 1-0.4 1.3-1.2 0.5-1.8-0.1-0.6 0.7-1.2-0.1-0.6 0.6-0.7 0.4-0.1 0.7-0.8 0.3-0.6 0.5-0.3 0.7-0.9 0.6-1.8-0.2-1.2 0.8-0.4 0-0.9 1-0.4 1.4-1.7 2.2 1.5 1.2-0.6 0.4-1.5 0-0.2 1.2 0.5 0.6-0.5 1.1 0 0.5 0.8 0.7-0.1 0.5 1.1 0.2 0.5 0.5-1 1.5 0.4 0.7-0.3 0.8-0.6-0.2-0.9 0.1 0.2 1.4-0.5 0-1.1-0.5-0.5 1.3 0.3 1.2-1 1.7-0.8 0-0.4 0.7 0.7 0.7 1.5 0.6-0.5 0.5-0.2 0.8-0.8-0.5 0-1.1-0.9 0.4-1.1 0.9-0.5 0.6-0.2 0.9 0.2 0.8-0.4 0.5-0.5 1.9 0.3 1.5 0.7 0.3 0.4 1 0.4 0.3 0 1.4 0.3 0.5-0.9 0.3-2.3-0.9-1.3-0.4-0.1 1.1-0.4 0.5 0.1 1.1 0.5 0.2-0.2 1-0.9-0.3-0.6 0.4-0.3 0.6 0.1 1-0.3 0.8-0.6 2.3-1 0.2-1 1-0.4 0.2-1.7-0.3-1-0.4-1.1-1-1-0.4-0.5 0.1-0.3-0.8-0.5 0.5-0.7 0.2-0.7-0.2-0.8 0.5-1.3-0.5-0.9 0.2-1.1 0.6-0.8-0.6-1.3-0.1-0.7 0.2-0.5-0.1-0.8 0.2-0.9 0.1 0 0.5 0.3 1.2-0.6 0.9-0.6 0.5 0.5 1-0.6 1.1-0.8 0.7-1 1.7-2.4 1.5 0.1 1-0.3 1-0.6 0.4-0.2 0.5-0.6-0.3-0.7 0.1-0.3-0.4-0.2-0.9-0.6-0.3-0.5 0.2-0.7-0.7-0.5 1.6 0.2 1.8-0.1 1.2 0.3 1.1-0.1 1.1 0.3 0.7 0.5 0.6 0.1 1.2-0.4 0.9-0.6 0.4 0.1 0.7-0.6 0.8 0.6 0.5 0.2 0.6 1.1 0.5 0.3 2 1-0.1 0 0.7 0.4 0.4-0.2 0.6-0.5 0.3 0 0.9-0.4 0.8-0.1 0.7 0.9 1 0.2 1.1-0.7 0.5-0.1 0.9 0.3 1.4-0.2 0.8-0.8 0.7-0.1 0.6 0.4 0.9 0.1 1.1-0.1 1 0.1 0.4 1.6 0.5 1.2 0.2 0.9 0.6 1.4 0.1 1.1 0.5 0.2 0.3 1.1 0.1 0.3-0.4 0.9-0.1 1.7 0.3 0.4 0.3-0.1 1.4-0.3 1.4 0.4 2.1-0.4 0.8-1.8 0.1-0.9 1.4-1.4 0.4-0.3-1 0-0.9 0.9-1.2-1-0.4-0.8 0.1-0.5-0.5-1.1-0.1-0.7-0.6-0.6 0.2-0.6-0.3-0.9 0.3-0.9 0.5-0.7 1-1 0.9-0.4-0.3-0.3-0.8-0.7-0.9-0.1-0.5-0.9-1.7-0.2-1-1.1-0.9-0.9 0.6-0.7 0-0.6-0.5-1.2-0.6-0.5 0-2-1.4-0.3 0.5-1.2 0.6 0-0.8-0.7-0.2-0.7-1-1-1-0.3 0.1-1.6 2-0.5-0.1-0.5 0.9-0.4 1.9-0.3 0.7 0.4 0.4-0.1 0.9 0.4 0.6 1.3 0.7 2.2 0.9-0.1 0.7 0.7 1.4 0.7-0.1 1.8 0.3 0.3 0.3-0.1 1.1-0.5 0.5-0.2 1.3 0.3 1.2 0.2 1.6-0.6 1.5 0.3 0.7 0.1 1-0.8 1.3 1.3-0.1 0.3-0.4 0.8 0.2-0.1 0.6 0.4 0.7-0.2 0.5 0.8 1.3 1.7-0.2 0.5 0.6-0.3 1.3-0.3 0.4-0.9 0 0.1 0.7 1.3 0.5-0.4 1.5-0.6 0.9 0 1.6 0.3 0.5-0.2 0.4 0.6 0.5 0.2 0.9-0.3 0.9 0.7 0.6 0.6 1.4-0.5 0.7 1 1.4 0.6 4-0.9-0.1-1.5 0.8 0 0.5-0.4 0.9 0.2 0.8-0.3 1.1 0.2 0.3-0.5 0.6-1.9 0.6-0.4 1.6-1.5-0.2-0.6 0.2-0.9 0.5-0.5 0.1-0.7 0.6 0.2 0.4-0.5 0.5 0 0.9-1.1-0.2-0.7-0.7-0.2 1.2 0.4 0.1 1 0.8 0.9 0.3-0.3 1-1.6 0.1-0.1 1.1-0.5-0.1-0.7 0.5-0.4 1-1.8 1.7-1.2 1.1-0.6 2.3-3 0.3 0.1 0.8-1.5 0.5-0.8 0-0.8 1-0.7 0.4-0.7 0.1-0.1 0.9-0.7 1.8 0.6 1-0.4 1-0.1 1.3-0.9 1.6-0.2 0.7 0.1 0.9-0.1 1.1-0.7 1-0.4 0.8 0.2 0.7-0.4 1-1.4-0.4-0.2 1 0.3 0.5-0.5 0.7 0 0.7-2.4-0.2-2.1 0-2.1-1.3-1.1-0.2-2.1 1.3-0.8 1.1-0.6 0.1-0.8-0.2-0.7-1-0.3-0.7-0.3-2.8-0.4-0.3-0.4-2.5-0.3-1.4 0.1-0.4-0.6-1.7 0-1.2 0.8-0.7 0.1-0.9-0.7 0.1-0.3 0.3-1.5 0.8-1.3 0.1-0.3-0.4-0.2-2 0.6-0.3-0.2-0.7-1.2-0.2-0.3 0.3 0.1 1.2-0.7 0.9-1.2 0.1-1-0.3 0-1.7 1.7-0.9-0.6-1.2-0.8-0.9 0-0.5-0.7-1.6-0.3-1.6-0.8-0.5 0.2-0.6-0.5-0.7-1.1-0.6-0.4-0.8-0.2-0.9-0.6-0.3-0.5-0.6-2.3-1.5-0.7-1.1-0.8-0.4-1.3 0-1.6 0.7-0.7 0.5-0.5-0.4-0.9 0.7-0.8-1.3-0.8-2.3-0.9-1.2-1-1.1 0.5-0.6 0.6 0.1 0.9-1.1 0.7-0.1 0.9-0.5 0.1-0.5-0.4-1.2-1.5-1.8-0.7-0.6-0.3-0.6 0.2-1.7 0.9-1.5-0.2-0.6 0.9-0.7 0.1-0.8 0.4-0.5-0.3-0.9 0.1-0.6 0.7-0.7 1.2-0.7 0.2-0.5-0.3-0.8 0.4-1 1-0.2 0.9-0.7 0.9-2.1 0.3-0.4 1.2-0.3 0.6-1 0.9-0.8 0.5-0.1 0.4 0.8 0 0.9 0.6 1.5 0.5 0.2 1.6-0.8 0.7 0.5 0 1 0.5 0.1 1.7-0.1 0.6-0.8 2.5-1.7 0.1-0.4-1-0.6-0.2-0.5-0.7-1.1 1.6-0.6 1.1 0 0.9-0.8-0.1-1.2-0.4-0.7-0.9-0.2-0.4-0.4-0.2-0.8-0.5-0.3-1.2 0.2-0.6-0.3-0.1-0.6-1.5-0.9-2 0-0.2-0.6 0.4-2.4-1.1-1-1.8-0.7-0.4-0.6-1.1-0.7 0.2-1.3-0.9-0.7-1.4 0.1-0.6 0.6 0.5 0.3 0.3 0.8-1-0.5-1.2-0.1-0.6 0.1-0.1-0.8 1.2 0.2 0.9-0.6 0.5-1.1 0.8-0.4-0.3-0.9-0.9-0.4-0.6 0.4-1.4-0.6 0.1-0.8 0.6-0.2 0.7-0.6 0.7 0.3 0.2 0.4 1.1 0.3 0.6-0.2 0.4-1.3 0.4-0.5-0.4-0.8 0.5-2.3-0.4-0.7 0.2-0.9-0.6-0.5-2.5-0.8-0.2 0.6-0.6 0-1.1-0.5-0.3-0.5 0.3-0.9 0.6-0.2 0-0.5-0.5-0.4-0.5-1.1 1.2-0.3 1.3-0.7 1.3-0.2 0.6 0.2 1-1.3 2.6-0.7-0.5-1.9-0.6-0.6 0.2-0.7 0.4-0.8-0.3-0.4 0.3-0.6 0.3-2.6-0.1-0.8 0.4-0.4-0.3-0.9 0.4-0.5-1.5-0.3-0.7 0.1-0.2 0.4-1.1 0.5-0.7-0.1-0.6-1.1 0.2-0.8 1-0.8 2.1-0.6-0.1-0.7-0.5-0.5-0.2-1.3-0.4-0.7 0-0.9 0.4-1.1-0.2-0.9 0-1.6-0.5-1.5-2.6 0.1-0.7-1.6 0-0.8-0.5-0.6 0.7-0.8 0.1-0.7-0.4-1.8 0.7-2.7 0.6 0.1 1.2-0.5 0.4-0.7 0.5 0.2 0.9-0.3 0.3-0.4 1.1-0.4 1.2-1 0.6-1.2 0.6-0.4 0-0.4-0.6-0.8 1-1.5 0.5-1.5-0.1-0.5 0.7-0.7 0.5-0.9-0.3-0.9 0.3-1.6-0.6-0.6 0.2-0.6-0.3-0.5-0.1-0.7 0.5-0.5-0.1-0.9-0.4-1.1 0.5-0.8 0.1-1.3 0.5-1 0.7 0 0.7 0.6 1-0.3 0-0.6 0.7-1.5 0.2-0.9-0.2-0.6 0.3-0.4 0-0.7-0.5-0.4 0-0.8 0.4-0.7-0.1-0.7 0.6-1 0.6-1.4 0-0.8 0.3-1 0.5-0.2 0.2-1.3 0.6-0.7 1.2 0.3 0.5 1.1-0.1 0.9 0.5 0.4 0.7-0.5 0.2-1.2-0.5-0.6-0.6-0.2 0.5-0.6 1 0 0.1-1.2-0.2-0.7 0.4-0.5-0.3-0.6 0.1-0.6 1-0.5 1.3-0.1 0.4-1.2 0.6-0.6-0.2-1.3 0.2-0.5-0.5-1.5 0.2-1.8 0.1-0.3 1.3-0.6 0.8-1.2 0.7 0.3 0.1 0.7 1 0.4 1.1-0.8 0.2-0.8 0.6-0.2 0.8 0.7 0.5-0.3-0.1-1 0.3-0.3 1.9 0.7 0.3 2.2 0.9-0.1 0.1-0.9 1-0.8 1.2 0.1 0.4-1 0.8-0.7 1.4 0.2 0.2-0.7 1.6 0.6 0.4-0.3 0.1-0.8 0.5 0.1 0.3-0.5-0.3-0.4 0.1-0.8 1.2-1.5 0.7 0.1 0.6-0.3 0.3-0.8 0.4 0.3 0.4 0.8 0.6-1.1-0.6-1.9 1.3-1.5-0.4-0.7 0.1-0.5-0.5-1.3 0.2-0.6 0-0.8 0.9-0.3 1.3-0.1 1-0.4 0.4-0.7 1-0.7 0.4-0.6 0.9-0.3-0.1-2-0.7-1.1 0.7-1.4 1.1-0.1 0.3-0.2 0.8 0.3 0.9-0.1 1.1-1.3 1.9 0.4 0.4-0.3 0.2-0.7 0.6-0.4 0-0.7-0.5-0.1 0.2-2.4 0.9-1.5 0.7-0.6-0.1-1.4-0.9-0.3-0.8-1.2-0.8 0.3-0.3-0.3-0.2-1.3-1.4 0.2-0.3 0.5-0.9-0.2-0.3-0.3 0.3-0.6-0.8-0.1-1-0.5 0-0.8-0.7-0.7 0-1.2-0.5-0.3-0.6-1-0.5-0.1-0.8 0.6-1.8 0.3-0.6-0.4-0.4-1-1.4-0.1-0.3-0.5-0.6 0-0.8 1.2-0.5 0.3-1.3-0.3-0.2 1.1-0.6 0.4-0.5-0.1-0.4-0.6-0.1-1.6-0.8 0-0.3-1.3 1.1-0.4 0.4-2.3 1 0 0.2-0.8 0.9-0.4 0.4-1-0.5-0.7-0.1-0.7-0.8-0.4-0.2-0.4 0.1-0.9-0.6-1.2-0.5 0-0.4-0.7 0.6-0.7-0.5-0.4 0.2-0.7 0.8-0.2 1.1-0.7 0.6 0.7 0.1 0.7 0.5 0.1 0.2 0.9 0.6 0.1 0.2 0.7 1.6 1 1.3 0.2 0.7-0.5 0.7-0.1 0.3-0.4 1.1-0.3 0.8-1.1 1.1 0.7 1.7-0.3 1.2 0.7 0.4 0.9 1.1 0.1 1.3-0.2 0.6 0.1 1.2-0.2 0.1-0.5 1.1-0.6-0.2 0.8 1.1 0.9 0.8-0.5 1.5 0.5 1.7 0.2 0.7-0.3 0.7 0.4 2.1-0.4 0.4 0 0.8 0.9 1 0.1 1-0.4-0.2-0.6 0.3-0.6 1.3 0.2 0.7-0.5 0.8-0.1 0.4-0.7 0.7-0.5-0.5-0.7 0.3-0.6 0.9-0.3 0.7-0.4 1.6 0.1 0.2-0.6 0.7-0.1 0.7-0.8 0.4-0.1 0.4 0 1 0.6 0.5 0.8 0.6 0.6 1.5 0.7 0.5 0.6 0.5 0.1 1-0.2 1.8-0.2 0.9 0.3 0.8-0.1 1.4-0.4 0.6-0.8 1.5-0.4 0.8-1.5 0.1-1.1 2.1-1.2 0-0.9 0.6-1.1 1-0.9 0.8 0.1 1.3-0.1 0.5 0.7 0.9-0.1 0.3 1.1 0.5 0.5 1 0.1 1.1 0.5-0.1 0.9 0.2 1.3 0.9 1.2-0.1 0.7 0.4 0.9 0.7 0.1 0.4 1 0.7 0.3 1.9 0.4 0 0.6 0.5 0.3 0.8 0 0 0.4 0.5 0.7 0.1 0.7 0.6 0.6 0.1 1.9-0.6 0.8 1.2 1.3-0.1 0.8 0.6 0.2 0.3 0.8 1.1 0.6 0.5-0.1 3.9 0.9-0.2-1.2 0.3-1.1 1.3-0.3 0.9 0.4 0.6 0.8 0.2 1.3-0.1 0.8-0.5 1.6-0.4 0.3-0.9 1.7 0.3 0.7-0.4 1.3 0 0.7 0.5 0.5 0.8 0.3 0.5-0.9 0.8 0.1 0.2 0.8 0.7 0.8-0.3 0.8 0.1 0.6-0.5 1.9 0.2 1.7-0.4 0.4-0.5 1.2 0.2 0.6 1.1 1.1 0.7-0.1 0.9 0.9 0.4 0 0.2 0.8-0.2 1.3 0.6 1.5 0.2 0.9 0.6-0.2 0.1-0.9 0.3-1 0.7 0.2-0.1 0.4 0.7 1.1 0.7-0.2 0.5 0.4 0.6-0.3 0.3 0.6 1-0.2 0.8-0.4 1.4 0.1 0.2 0.9 0.4 0.5-0.4 1.5 0 0.9-0.7 0.5-0.9 0-0.3 0.4-0.1 1.2-0.3 0.6-0.7 0.5-0.1 0.9-0.9-0.1-1.2 1.1 0.2 1.7-0.6 0.9-0.6 0-0.5 0.6-1.1 0.5-2.3 0-1.1 1.5-1 0.3-0.5 0.6-0.2 1.1 0.1 0.7z" fill="#A78BFA" opacity="0.45" stroke="#A78BFA" stroke-width="1.5" />
  <path class="state-highlight" d="M500.3 522.8l-0.4 0.1-0.7 0.8-0.7 0.1-0.2 0.6-1.6-0.1-0.7 0.4-0.9 0.3-0.3 0.6 0.5 0.7-0.7 0.5-0.4 0.7-0.8 0.1-0.7 0.5-1.3-0.2-0.3 0.6 0.2 0.6-1 0.4-1-0.1-0.8-0.9-0.4 0-2.1 0.4-0.7-0.4-0.7 0.3-1.7-0.2-1.5-0.5-0.8 0.5-1.1-0.9 0.2-0.8-1.1 0.6-0.1 0.5-1.2 0.2-0.6-0.1-1.3 0.2-1.1-0.1-0.4-0.9-1.2-0.7-1.7 0.3-1.1-0.7-0.8 1.1-1.1 0.3-0.3 0.4-0.7 0.1-0.7 0.5-1.3-0.2-1.6-1-0.2-0.7-0.6-0.1-0.2-0.9-0.5-0.1-0.1-0.7-0.6-0.7-1.1 0.7-0.8 0.2-0.2 0.7 0.5 0.4-0.6 0.7 0.4 0.7 0.5 0 0.6 1.2-0.1 0.9 0.2 0.4 0.8 0.4 0.1 0.7 0.5 0.7-0.4 1-0.9 0.4-0.2 0.8-1 0-0.4 2.3-1.1 0.4 0.3 1.3 0.8 0 0.1 1.6 0.4 0.6 0.5 0.1 0.6-0.4 0.2-1.1 1.3 0.3 0.5-0.3 0.8-1.2 0.6 0 0.3 0.5 1.4 0.1 0.4 1 0.6 0.4 1.8-0.3 0.8-0.6 0.5 0.1 0.6 1 0.5 0.3 0 1.2 0.7 0.7 0 0.8 1 0.5 0.8 0.1-0.3 0.6 0.3 0.3 0.9 0.2 0.3-0.5 1.4-0.2 0.2 1.3 0.3 0.3 0.8-0.3 0.8 1.2 0.9 0.3 0.1 1.4-0.7 0.6-0.9 1.5-0.2 2.4 0.5 0.1 0 0.7-0.6 0.4-0.2 0.7-0.4 0.3-1.9-0.4-1.1 1.3-0.9 0.1-0.8-0.3-0.3 0.2-1.1 0.1-0.7 1.4 0.7 1.1 0.1 2-0.9 0.3-0.4 0.6-1 0.7-0.4 0.7-1 0.4-1.3 0.1-0.9 0.3 0 0.8-0.2 0.6 0.5 1.3-0.1 0.5 0.4 0.7-1.3 1.5 0.6 1.9-0.6 1.1-0.4-0.8-0.4-0.3-0.3 0.8-0.6 0.3-0.7-0.1-1.2 1.5-0.1 0.8 0.3 0.4-0.3 0.5-0.5-0.1-0.1 0.8-0.4 0.3-1.6-0.6-0.2 0.7-1.4-0.2-0.8 0.7-0.4 1-1.2-0.1-1 0.8-0.1 0.9-0.9 0.1-0.3-2.2-1.9-0.7-0.3 0.3 0.1 1-0.5 0.3-0.8-0.7-0.6 0.2-0.2 0.8-1.1 0.8-1-0.4-0.1-0.7-0.7-0.3-0.8 1.2-1.3 0.6-0.1 0.3-0.2 1.8 0.5 1.5-0.2 0.5 0.2 1.3-0.6 0.6-0.4 1.2-1.3 0.1-1 0.5-0.1 0.6 0.3 0.6-0.4 0.5 0.2 0.7-0.1 1.2-1 0-0.5 0.6 0.6 0.2 0.5 0.6-0.2 1.2-0.7 0.5-0.5-0.4 0.1-0.9-0.5-1.1-1.2-0.3-0.6 0.7-0.2 1.3-0.5 0.2-0.3 1 0 0.8-0.6 1.4-0.6 1 0.1 0.7-0.4 0.7 0 0.8 0.5 0.4 0 0.7-0.3 0.4 0.2 0.6-0.2 0.9-0.7 1.5 0 0.6-1 0.3-0.7-0.6-0.7 0-0.5 1-0.1 1.3-0.5 0.8 0.4 1.1 0.1 0.9-0.5 0.5 0.1 0.7 0.3 0.5-0.2 0.6 0.6 0.6-0.3 1.6 0.3 0.9-0.5 0.9-0.7 0.7 0.1 0.5-0.5 1.5-1 1.5-1.3 0.5-0.8-0.2-0.4-0.7-0.7 0 0.1-0.5-0.9-0.5-0.6-0.7-1.5-0.2-1-0.3-0.2 1.1-0.3 0.1-1.1-0.4-0.4-1 0.8-1.1-0.4-1-0.9-0.9-0.1-1.1-1.1-0.7-0.6-1.3-0.9 0-1.2-1.7-1.3 0-0.6-0.5-0.6 0-1.5 1.1-0.8-0.2-0.3 0.6-0.6 0.3-1 1.1-1.3 0-1.1 0.8-0.7-0.8-1.6 0.1-0.4 1-0.8 0.1-1.2-0.3-1.1-0.6-0.2-0.4-0.9-0.9-2-0.7-0.7 0.4-0.6 0-0.3 0.4-1 0.1-0.2 0.7-1.4 0.1-1.2 0.4-0.5-0.1-0.8 0.1 0.1-0.8-1.2-0.9-0.2-0.8 0.5-0.5-0.8-1.8-1.1-0.4-0.6 0.1-1-0.3-0.5 0.6-3.8-0.7-0.9-0.9-0.8 0.1-0.5 0.6-0.1 0.7 0.4 0.3-0.4 0.8-2.4-0.4-0.2 0.8-0.5 0.4-0.9 0.4 0.1 0.3-2.5 0.2-0.7 0.1-0.5-0.6-0.7 0-1.2 0.9-0.9 0 0 1.1 0.4 1.5 0.4 0.1-0.2 1.2-1.2-0.5-0.3 0.6-1.2-0.4-0.2 0.2-2.1 0-0.4 0.8-0.4-0.8-0.5-0.1-0.2 0.7-0.5 0.3-1.4-0.6-0.9 0.1-0.7-0.2-0.6 0.3-0.5-0.4-0.7 0-0.9-1-0.7-0.4-1-0.1-1 0.8-1.4 0.1-0.6-2.2-0.3-0.5 0.4-0.9-0.7-0.3-1.1-0.2 0.2 0.7-0.5 0.7-0.9-0.5-0.6 0.6-1.6-0.7-0.1 0.8-1 0.2-0.8 0.5-1.2-0.2-0.3 0.2 0 0.9 0.2 0.5-0.3 0.6-3.6 2.2-0.7 0.1-0.8 0.6-0.7 0.1-0.6 0.5-1.4 0.1-0.1 0.5-1.3 0.3-1.2-0.4-1.6-0.7-0.6-0.1-0.2 0.7-1.6 0.3-0.3 0.6-1.1 0.3-0.1-0.7-1.1 0.2-0.3-0.6-0.6-0.2-1.5 0.2 0 0.9-1.3-0.3-0.5-0.3-2.1 0.1-0.2-1.4-0.4-0.8 0-0.7-1.1-0.6 0.1-0.6-0.7-1 0.1-0.9 0.7-0.1 0.5-0.4 1.6 0 0.8 0.5 1.3 0.4 0.8 0 0.6-0.4-0.6-0.7-0.6-0.1 0-0.9-0.5-3-0.5-1.1-1.6-1.8-0.7-0.3-0.1-0.5-0.8 0.3-1.6 0.2-2.2-0.2-0.6 0.2-1.5-0.1 0.4 0.9-0.7 0.2-0.3 0.5-1.2-0.1-0.1 0.7-0.4 0.2-0.8-0.4 0.1-0.6-1.4 0.3-0.9-0.4-0.9 0.2-0.9-0.1-0.3 0.4-2.1 1.1-3.6 2.9-1.4-0.5-0.6 0.8-1.3-0.1-0.5 1.2 0.2 1-0.8 0.5 1 1.2-0.3 0.9-1.4 0.8-0.4 1.3-2.1 1.4-1.4 1.1-0.1 0.4 1.2 1.7-0.1 1.3-0.5 0-0.4 0.7 0 0.8-0.3 0.5-2.2-0.5-1 0.6-1.3-0.3-0.3 0.4-0.3 1.3-0.5 0.5-0.2 0.9-0.7 0.3-0.7-0.1-0.1 0.5-1.1 0.6-0.5-0.1-2.8 0.2-0.4-0.6-2.9 0.1-0.5-0.6-1.1-0.8 0.1-0.5-0.9-0.9 0.5-0.5 1.3 0.3-0.1-1.9-0.6-0.4 0.5-0.9-0.5-1.1-0.6-0.3-0.7-2.3-0.3-0.5-1.6 0.7-0.6-0.4-1.7-0.5-0.5-0.6-1.8 0.2-1-0.4-0.9 0.5-1 0.1-1.1-0.2-1.4 0.1-0.5-0.2-1.3 0-1.1 0.4-1.5 0-0.4-0.5-0.9 0.1-0.4 0.4-1.1 0.3-0.8-0.5-1.9-0.3-2.9 0.3-0.8-0.6-0.2 0.3-1.8 0 0-0.7-1.6 0.3-0.8-0.4-0.4 0.2-1.1-0.6-2-0.8-0.8-0.7-0.5-1.7-1.1-1.8-1.4-0.3-0.2-0.3-1.1-0.6-1.8-0.5-0.8-0.7-1.3-0.1-1.4 0.8-0.8 0-2.6-0.5-1-0.4-1.4-0.7-2.3-0.4-0.1-0.7-0.8-0.2-0.4-1.1-0.9 0-0.4-0.4 0.2-1.4-0.3-0.3-0.2-1.1 0.3-0.6 0.2-2.4 0.3-0.8-0.4-0.9-0.7-0.8-0.7-0.4-0.7 0-0.3-0.6 0-1.2-0.3-0.6-1.6 0.4-0.4 0.7-1.1 1-1.5 0.3-0.3 1.1-3.1 0.4-1-0.7-0.9-0.4-0.1-0.5 0.4-0.6-1.8-0.6 0-0.6 0.8-0.7 0.4-0.6 0.9-0.3 0.2-1.5-0.5-0.1-0.7 0.3-0.2-1.3 0.2-1.1-0.3-0.2-0.1-1.7-0.3-0.2-1.3-0.1 0.1-1.7-0.6-0.7 0.3-1.6 0.2-0.4-0.1-0.7 0.8-0.1 0.6-0.4 0.5 0.7 0.2 0.8 2 0.4 0.2-0.8 1-0.6 0.4-0.6 1.2-0.6-0.4-1.2-0.9-0.6-1.1 0.1 0-1.1-0.7 0.1 0.1 0.8-1 0.1-0.6-0.5-0.6 1.2-0.6-0.4-0.1-1.4-0.8 0.2 0.2-1.6-1.4-0.3 0.1-1 0.7-0.3 0.6 0.1 1.5 0.9 0.9 0.3 0.1-0.6 1.2-0.8 0.2-0.6 0.5 0.1 0.5-0.6 0.3-1.1 0.7-0.4 0-0.4 0.7-0.5 0.6 0.3 1.1-0.1 1.3 0.3 0.6-0.3 0.1-1 0.4-0.8 0.2-1.4 1.2-2.1 0-0.8 0.9-0.3 0.5-1.6-0.6-2-0.4-0.4-1.1 0.2-0.6 0.7-0.6-0.4-1.4-2 1-0.6-0.5-0.8-0.2-1-0.8-0.5-0.1-0.7 0.8-0.3 0.5-0.8 1-0.8 1.4 0.3 0.4 0.4 0.8 0.3 1.5-0.1 0.8-0.5 0.4-0.6 0-0.5 2.1-0.5 0.6-0.7 1-0.7 0.5-0.7 1.6 0.3 1-0.7 0.2-0.7-1.1 0.4-0.8-0.3 0.9-0.5-0.7-1.1-1-0.1-0.7 0.5-0.7-0.1-0.6-0.8-0.9 0-0.7-0.5-0.6 0.4-0.5-1.3 0.3-0.6 0.1-0.9 0.5 0 0.4-0.7 0-1.4 0.9-0.4 0.5-1.2 1.5-0.2 0.4-0.6 1.4-0.8 0.8 0.2 0.3-0.7 0.7-0.2 0.4-0.7 0.7-0.1 0.2 0.4 1.7-0.8 0.6-0.7 0.6-1.2 0.7-0.6 1.1-0.2-0.5-1.5-0.5-0.3 0.5-0.7 0-0.9 0.5-0.5-0.2-0.9 0.2-0.3-0.4-1.2-0.6-0.1 0.2-1.7-0.4-0.8 0.4-1.7 0.9-1.8 0.7-0.5 0.3-1.1 0.6-0.4 0.1-0.6-0.4-0.4 0-1.1-0.5-0.4-0.2-1.1-0.7-0.4-0.4-1.3-0.9-0.7-0.7-1.5 0.9-0.7-0.4-1-0.7-0.6-0.7 0.3-1.3-0.3-1.5 0.2-0.6-0.3 0.1-0.6 0.9-0.8 0-1.9 0.6-0.7 0.4-0.9 1.5-1.6-1.5-1.5-0.7 0-0.5 0.4-0.7-0.3-1.4-1.2 0.4-0.5 0.7 0 0.3-1.1-0.3-1.2 1.4-0.5-0.2-1 0.4-0.7 0.7-0.6-0.1-0.6-1.3 0 0.5-1.5-0.3-0.6 0.8-0.4-0.2-1.6 0.4 0 0.3 1.2 1 2.1 0.6 0.7 0.3 0.8 0.9 0.5 1.5-0.3 0.7-1.4 1.2-0.3-0.3-1 0.1-0.7 0.9 0 0-0.7-0.3-0.8-0.5-0.2-0.9 0.3-2.3-0.2-0.7-0.2-0.2-0.4-0.7 0 0-1.5-1-1.8-0.1-1.5 0.3-1 0.7-0.3 0.3 0.3 0.1 1.1 1.2-0.1 0.4 0.4 0 1.1 1.2 0.2-0.1 0.6 2.3 0.2 1.1 0.5 1-1 0.6 0.3 0.9-0.4-0.1-2.9 0.8-0.8 0.9-0.2 0.2-0.6-0.5-0.8 0.1-0.6 0.5-0.3 0.9 0.7 3.8-0.4 1.3 0.2 0.1 0.6-1.1 0.7 0.1 0.9 0.5 0.7-0.4 1-0.3 1.1-0.9-1.7-0.2-0.9-0.6 0.6 0.7 1.3-0.7 0.5-0.2 0.9 1.7 0.7 0.5-0.6 1.6 0.3 1.2-0.5 0.6 0-0.3 1.1-2.5 1.1-0.4 0.1-0.6 0.6-0.5 0-0.5-1.3-1.5-0.4 0.3-1.3-1.6 0.4 0.9 1.4 0.8 0.4-0.2 0.5-1 0.1-0.9 1.2 0.2 1.1 0.7 1.4 0.4-0.5 0.7 0.2 0.6-0.1 1.3 0.4 1.6 0.2 0.4 0.3 3 0.6 1.1-0.2 1.8-0.8 0.5 0.2 1-0.3 1.1 1.3 1.6-0.5 0.7-1 2.1-1.3 1.5-0.1 0.7 0.3 1.1 1 0.1 0.5-0.4 1.8 0.5 0 0.1 1.4 0.2 0.6 0.7 0.3 0.4 1 0.9 0.1-0.1 1 0.6 0.5-0.7 1.2 0.2 0.5-0.1 1.4-0.2 0.3-1.4 0.9-1.1 0-0.6-0.5 0.1-1.1-0.8-0.3-0.2 0.6-1 1.1 0 0.7-0.7 0.2 0.1 0.6 0 1.5 0.9 1.4 1.1-0.1 0.5 0.5 0 1.5-0.2 1.2-1.1 0.3-1 3 1.2 0.2 0.3 0.9 0.8 0.3 0.6-0.2 0 1.4-1.7 0.3 0 1-0.6 1.4-0.8 0.1-0.1 0.6-1.2 0.4-0.6-1.1 0.1-0.7-0.6-0.6-0.9 0.6-0.2 0.7-2.3 0 0.1-0.7-1.4-0.5-0.6-0.7-0.7 1.7-1 0.9-0.2 2.2 1 0.4 0.6 0.7 1.1 0.6 0.9 0.7 0.2 0.8-0.1 0.7 0.6 0.6 1.1-0.2 1.2 0.2 1.3 1 0.3-0.5-0.3-1.2 0.8 0.1 0.3-0.4 0.2-1.4-1-0.5 0.2-1 0.8 0.1 1.1 0.8 0.1 0.9 0.6 0.1 0.8-0.6 1.7-0.9 0.9 0.4 1.4-0.8 0.4 0.1 0.6-0.7 0.9-0.4 0.2-1.6-0.7-0.9 0-1 1-0.2 1.2-0.7 0.6-0.9 1.9-0.6 0.2-0.2 1 0-0.2-0.9 0.3-0.5-0.2-1.4-0.4-0.3 0.1-1 1-1.2 0.1-0.3-0.4-1.4 0.2-0.4 0.7-0.1 0.1-0.8 0.5-0.6 0.7 0.8-0.4 1 0.3 0.6 0.1 1.3 0.6 0.4 0.8-0.2 1 0.5 0.4-0.8 1-0.5 1.2 0 2 1.5 0.4-0.6 1 0.3 0.4-0.4 1.1 0.6 0.4 0.5 0.1 0.8 0.4 0.6 1.1-0.2 0.8-0.5-0.5-0.8 0.2-0.4 1.5-1.1 0.1-0.8 0.8 0 1.3-0.3 0.5-0.5 0.3 1.3-0.5 0.7-0.4 1.4 0.9 0.8 0.6 0.4 0.3-0.3 0.9-0.1 0.5 0.3 0.7 1.5 0.4 0.2 0.9-0.2 1-0.5 0.5-0.1 1 0.4 0.5-2.2 0.6 0.1 0.4-0.5-0.9-0.8-0.1-0.4-1.4-1.5-0.5-1.5-0.5-0.6-0.3-1.2 0.4-0.3 0.1-0.8-0.3-0.7 0.3-1.1-0.3-0.2 0.3-1-0.2-0.7-0.4-0.4-0.7-1.4 1.1-0.6 0.7 0.1 0.3 0.8 0.5 0 0.4-0.8 0.6 0.5-0.1 1.8 0.9 0.8 0.6 0.2 1.1-0.5 1.1-1 0.3-1.1 0.6 0.1 0.5-1.4-0.2-1.1 0-1.8-0.8-1.5-0.1-0.8-0.5-0.4-0.9-0.1-0.7-0.6-0.3-1-0.6-0.2-0.8 0.6-0.6 0.1-0.6-0.3-0.9 0.2-0.5-0.1 0-0.7-1-1.3-0.5-0.8 1.2-0.6 2 0.1 1.1-0.4 0.7-0.9-1.2-0.6 0.4-0.8-1.8-1.7-0.2-0.6 0.1-1.5 0.4-0.9 0.7 0 1.8-0.5 0.5-0.3 0.5-0.8 3.2 0.7 1.3-0.4 0.5-0.7 1 0 0.4-1 0.9-0.1 0.8 0.3 1.4-0.4 0.8 0.6 0.6 0.8 1-0.5 0.6-0.1 1.3-0.9 0.1-2.5 0.9-0.2-0.3-1.2-0.9-0.7-0.6-0.2-0.5-0.8 0.6-0.5 0.3-0.8-0.4-1-0.7-0.2 0.4-1.2-0.4-0.7 0.6-1-1.9-0.8-0.8 0.4-0.7 1-1.4 0.9-0.1 1.6-0.7 0.1-0.2 0.7-1.3-0.1-1.3-0.8-1.3-0.2-0.5 0.6-0.8 0-0.5 0.9-1.1-0.1-1.1 0.2-0.2 0.7-0.9 0 0.1-0.7-1.3-0.9-1.7-0.3-2.4 0.5-0.2-0.8-0.9-0.4-0.9 0.2-1.1-0.1-1.5-1.3-0.4 0.2-0.8-0.6-0.5-1.6-0.8-0.4-0.2-1.1-0.7-1.4-0.6-0.8 0.1-0.8-0.5-1.1 0.2-1 0-1-0.5-0.6 0.4-0.9-1.2-0.8 0.2-0.9 0.7-0.4 0.8-0.1 0.1-0.5-0.2-0.8 0.2-1.2 0.7-1.1 0.6-0.5 0.6-1.1 0.4-0.3 1.2 0 0.3-1.1 1.2-0.3 1.3 0.5 0.7-0.1 1-0.7-0.1-0.8 1.2-0.1 0.8-1 0-0.5 0.7-1-0.3-0.7 1.4-1.1 0.5-1.4 1.8-0.4 1.9-1.2 0.3-0.9 0.7-0.6 1-0.4 1.1 0 0.4-0.3 0.6-1.4 0.5-0.3 1.2-0.2 1 0.3 1.5-1 1-0.5 1.4-1.5 0.3-1.2 1.7-0.9 0.7 0.3 0.5-0.2 1 0.1 0.3-0.5-0.4-1.1 1.6-0.3 1.6 0 1-1 1.6-0.5 1-1.1 1.5-1 0.8 0.3 1.1-0.5 0.4-1.1 1-0.4 1 0.1 0.5-0.1 0.4-0.7-0.1-1.1 0.7-0.5 1.3-0.2 0.3-0.5 0.1-0.8 0.4-0.5 1.3 0.1 1-0.5 0.8-1 1.9 0.5 0.9 0.4 0.4-0.3 0.1-1.9 0.7-0.5-0.5-0.8 0-0.7 0.8-0.5 0.9 0.4 1 0 0.1-0.4-0.6-0.9 1.7-0.4 0.4 0 1.2 0.6 0.3-0.2 0.1-0.9 0.5-0.6 2-0.3 0.7 0.1 0.8 1.6 1.4-0.1 0.6 1.1 0.5 0.3 1.9 0.4 1.7 1 1.3 0.1 0.6-0.8 1.3 0.3 0.7-0.9 1.3-0.3 0.1 0.7 0.7-0.4 0.7 1 1.7 0 1 1.5 0.9 0.8 1.3-0.3 1.5 0.6-0.4 1 0.4 0.3 1.2-0.8 0.6 0.4-0.5 1 0.6 0.8 0.1 0.6-0.8 0.7 0.5 0.7 0 0.9 1.2 0.6-0.1 0.4 1.1 0.8 0 0.7-0.5 0.9 0.7 0.6 0.8-0.4 1.2 0.5-0.3 1-1.3 0.5 0.3 1-0.4 0.6 1.4 0.3 0.3 1.5-1 0-0.7 1.1-0.7 0.1-0.3 1.1 0.5 0.3-0.7 0.7-0.8-0.1 0 0.7-0.5 0.6-1 0.2 1 0.7-0.1 0.7-1.4 0-0.5 0.7 0.7 0.4 0.2 0.7 1.1 1-0.7 0.3-1.3 1.4 0.2 0.4-0.3 1.3-0.9 1.6-0.7 0.9-0.6 0.4 0.3 0.6-0.1 0.9-0.9 0.2-0.5 1 0.8 0.4-0.1 1.2-0.7-0.1-0.1-0.6-0.8-0.4 0.1 1.2-0.7 0-0.8 1.4-1 0.5 0 0.4 0.5 0.7 1 0.4 0.7 1.3 0 1.1-0.2 0.8-0.3 0.3-2.2 0.5-0.7-0.1-1.2 0.5-0.9 1.1-1-0.3-0.5-0.6-0.8 0.9-1.2 0-0.7-0.3-1.5-0.3-1.1 1.1-0.8-0.4-0.6 1.1 0 0.9 0.4 1.1-0.9 0.3-0.3 0.7-0.8 0.3-0.5-0.3-0.4 0.9-0.1 1-1.3 1.4 1 0.4 0.2 0.7-0.8 1 1.3 0.5 0 0.6 0.6 0.6-0.2 0.6 0.6 0.9 0.7 0.2-0.3 1 0.6 0.2 0.5 0.6 0.9 0-0.1 0.6-0.6 0.4 0 0.8-1.2-0.1-0.7 0.9-1.2 0.4-0.3 0.4 0.2 1.4 0.3 0.7-0.4 1-0.7 0.4-0.6 0.8-0.9 0.6-0.2 0.4-1.5 1-0.5 0.7-1 0.4-0.2 0.6 0.1 0.8 0.7 0.2 0.8 1.2 0.5 1.3-0.2 0.7 0.3 0.9 0.8 1.1 0.6 1.4-0.4 0.7 0.4 1.3-0.5 2.4-1 0.4-0.2 0.7 0.7 0.4 0 0.8 0.8 0.3-0.1 0.8 0.2 0.5 1.8 1.4 0.6 0.2 0.9 1-1.2 1.5 0.5 1.1 0.7 0.5 0.8 0.8 0.7-0.1 0.2-0.4 0.8-0.4 0.2-1 0.9-0.5 0.3-1.1 0.8-1 0.5 0.1 0.4 0.6 0.9 0.6 0.9 0.1 0.9 1.5 0.6 0.3-0.2 0.5 1.3 0.8 0.5 1.1 1 0.4 0.7-0.2 0.2-0.5 0.7 0.5 0.3-0.3 0.7 1.3 0.3 1 0.7 0.1 0.2-0.9 0.6 0.2 0.4-0.5 0.6 0.1 0.8-0.6-0.1-1 1.1-0.7-0.1-1 0.9-0.7 1.2-1.4 0-0.6 0.4-1.7 0.3-0.4-0.2-0.7-1.3 0.2-0.5-0.7-0.6-0.1-0.4-0.9 0.4-0.5 0.4 0.6 0.6 0 0.8-0.5-0.7-0.4-0.2-1.3 0.2-0.4-1.1-1-0.3-0.9-0.4-0.3-0.4-1-0.6-0.1-0.6 0.5-0.5 0.7-1 0.1-0.8 0.5-0.9-0.3-0.1-1.3-0.3-0.9 0.6-0.6 0.5-1-0.3-2.4 0-1.1 0.6-0.7-0.6-1.8-2.3-1.2-1-0.3-0.5-1.6-0.9-0.6 0.2-0.9 0.2-1.5 0.2-0.4-0.1-1-0.7-1.1-0.8-0.3-0.1-2.2-0.8-1.7-0.3-1 0.2-1.1-0.5-0.5-0.6 0-0.5-0.6-0.5 0.2-0.6-0.4-1.2 0.8-0.8-0.4 0-0.6 1.3-0.2 0.7-0.7 0.6 0.7 0.7-0.1 0.2-1-0.1-1.3 0.9 0.7 0.7-0.2 0.1-0.9 0.8-1.5 1.1 0.3-0.1-0.9 0.9-0.4 1.1-0.1 0.3 0.7-1 0.9-0.4 0.6 1.8 0.4-0.2 0.7 1 0.3 1-0.3-0.2-1.7-0.4-0.5 1.7-0.4-0.2-0.6-0.8 0.5-0.6-0.7-0.8-0.6 0-1 1.1 0.6 1.1-0.3 2.2 1.2 0.1-0.6-0.4-0.9-0.6-0.5 0.2-0.5 1.4-0.3-0.2-0.7 0.6-0.7 1.3 0.1 0.6 0.3 0 0.8-0.9 0.5 0.7 0.9-0.2 0.9-0.9 0.9 0.9 0.7 0.4-0.5 0.6 0.1 0.4 0.7-0.1 0.9 0.2 0.9-0.9 0.1-0.3 0.6-1.4-0.5-0.1-0.5 1.2 0.1 0.4-1-0.9 0.1-0.5 0.4-0.9 0.1-1.3 1.3-0.1 0.8-0.7 0.8-0.7-0.2 0 0.9 0.7-0.1-0.3 0.9 1 1.4 0.4 0 0.6-1.9 0.3-0.3-0.5-0.9 1-1.2 1.5 0.6 0.9-0.6-0.1 1.4 0.6 0.7-0.9 0.5-0.2 0.6-1-0.4-0.5 0.9-0.8 0-0.2 0.7 0.5 0.6-0.5 1 0.4 1 0.8-0.7 0.8-1.1 1-0.4 0.5 0.2 0.5 0.6 0.6-0.6-0.2-0.6-0.8-0.4 0.5-1.2 0.9 0 0.1 1 0.4 0.5 1 0.3-1.1 1.5 0.4 0.5-0.5 1.1 0.6 0.3 0.7-0.6 0.2-0.8 0.7-0.7 0.2 0.6 0.9 0.5-0.3 0.7 0.5 0.6 0.3 0.6 1.6-0.2-0.4-1.1 0.6-0.2 0.4 0.9 1.4 0.4 0-1-0.4-0.5 0.8-0.2 0.4 0.8-0.2 0.4 0.7 0.4 0.2-0.5 0.7 0.1 0.4-0.8-0.4-0.9-0.6-0.5-0.2-0.8 0.5-1.1 0.6 0.7 1-0.4 0-1.6-0.9 0.5-0.9-0.8-0.6 0.6-0.5-0.5 0.2-1.2 1.1-1.1 1.8 0.3-0.4 0.6 0.5 1 0.1 0.9 0.5-0.1 0.2-0.9 1 0.5 0 0.6 1.7 0.3-0.6 0.5 0.3 0.8-0.4 0.7-0.7-0.2-0.2 0.7-0.7 0.7-0.1 0.8 0.3 1.1 0.6 0.2 0.4-0.7 0.5 0.3 0.1 0.7 1.1-0.9-0.3 1.3 1 0.5 0.4-0.6 0.5-0.1-0.1-0.9 0.5-0.5 0.8-1.2 0.6-0.2 0.2 0.6 0.8 0.5 0.7 0.1 0.5 0.4 1.1 0.2 0.4-0.3 1 0.1 1.1-0.4 1 0.7 2 1 1 0-0.5-0.7 0.7-1.5 0-0.7-0.3-1 0.3-0.6-0.6-0.7 1-0.6 0.7 0.2 0.9-0.1 1-0.6 1.6-0.2-0.1-0.7 0.7-0.5-0.1-0.8 0.3-0.7 1.7 0 0.5-0.5 1.5 0.6 0.3-0.6 0.8-0.4 0-0.4 0.9-0.3 0.1-0.8 0.8 0.1 0.6-0.3 0.5 0.2 0.4-0.9 0.6 0.2 1.2 1.2 0.1 0.8-0.3 0.5 0.3 0.9-0.1 0.9-0.2 0.5 0.3 0.6 1 0.1 0.5 1.1 0.7 0.5 0.7-0.2 0.1 0.8 0.8 1.8-0.3 0.3-1 0.1-1.3 0.8 0 0.4-0.9 0.9-0.6 1.2-0.8 0.4-0.5 1.3 0.8 0.3 0.8 0.7 0.5 0 1.4-0.8 0.4-1.2 0.5-0.6 1 0 0.6-0.4 0.6 0.5 0.4 0.9 1.1-0.6-0.5-1.1 0.7-0.4 0.3 0.7 0.9 0.6 1.2-0.8 0.9 0.5-0.6-1.3 0.2-1.7 1 1.2-0.5 0.9 1.1 0.2 0.4 0.6 0.9-0.2-0.2 1.1 1.9-0.7 0.2 0.4 1.4 0 0-0.9-1-0.5-0.9-0.2-0.1-0.9 1.2-0.5 1 0.2 0.6-0.4 0.7 0.6 0.4-0.4 0.4-1-0.2-0.9 1.1 0.1 1.2 0.9-0.6 0.9-0.7 0.7 0.2 0.8-0.3 0.5 0.3 0.6-1.1 0.8-0.4 0.8 0.8 1-1.1 1.1-0.7 0 0.1 1.1 0.7 0.3 1.2 0 1.1-0.4 0.3-0.3 1.3-0.6 0.6 1.2 1.6 0 0.9-0.6 1.7 0.1 0.4 1.1 1.3 1.1 0.5-0.8 0.5-0.6 0.2-1 1.5 0.7-0.2-1.2 0.4-0.2-0.3-0.7 0.6-0.4 0.9-1.3 0.5-1.1-0.1-0.7-0.4-0.7 0.4-0.4 0-0.9 0.6-0.5-0.3-0.4 2.1-0.3 0.7 0.2 0.6 0.9 0.8 0.7 1.3-0.3 0.3 0.7 0 0.7 1.6 0.8 0.4-0.3-0.1-1-0.5-0.4 0-0.7 0.5-0.4 0.9-0.1 0.3-0.6-0.6-0.2 0.1-0.6 0.7 0.1 1.1-0.4 0.7 0.5-0.2 0.6 0.8 0.1 0.5 0.4-0.9 0.7 0 0.5 0.8 0 0.5 0.7-1.2 1 0.9 0.8 0.9-0.7 1 0.4 0.2 0.8 0.8 0.2 0.3-0.6 2.6 1.6 1.3-0.3 0.6 0.5 0.9 0.1 1 0.8 0 1.5 0.3 0.8-0.4 0.6 0.1 0.8 0.9 0.4-0.1 0.5 1.2 1.1 0.1-0.4 1.4-0.4 2 1.1 0.6 0 0.6 0.5 0.4 0.6 0.7-0.4 1 0.4 0.4-0.3 1.2 0.1-0.4 1.3 1.1 0 0.4 0.4 0.1 1.9-0.5 0.5 0 0.6 1.4-0.3 0.8 0.6 0.2 1.4 0.4 0.6 0.7-0.4 0.5 0.2 0.5 0.6 1.7 0.2-0.2-1.5 0.3-0.8-0.4-1 0.7-0.8 0.4 0 0.5 0.6 0 0.4 1-0.2 0.3 0.3 1.1-0.1 0.4 1 1.5-0.4 0.5-0.4 1.7-0.5 0.9-0.5 1.1 0.9-0.2 1 0.4 0.3 0.9-0.2 1.3 0.2 0.1 1.7 0.9-0.1 0.2 1.7-1.9 0.5-1-0.6 0 1.6 0.7 0.5-0.5 0.9 0.1 1.9-0.4 0.4-0.2 1.1 0.4 0.6 1.4-0.1 0.1 0.9-0.1 1.1 0.1 1-0.5 0.9 0 1.2-0.8 0.5 0.4 2.1-0.5 0.4-0.1 0.7-1.1-0.2-0.6-0.6-0.4 0.9 0.2 0.4 1.3 1 0.2 0.6 0.6 0 1 0.3 0 1.1-0.5 0.5 0.2 0.7 1.9 0.4-0.1 0.9 0.3 0.5z" fill="#8B5CF6" opacity="0.4" stroke="#8B5CF6" stroke-width="1.5" />
  <path class="state-highlight" d="M741.5 463.6l0.2 0.4-0.1 0.5 0.2 1-0.4 0.4-0.4 0.1 0.2-1.6 0.3-0.8z m181.8-57.3l-1.4 1.4-1.3 0.9-0.2 0.6-0.8 0.5-1.7 0.6-0.5 0.5-1.2 0.3-1-1-0.8 0.2-0.7-0.2-0.9 0.4-0.6 0.7-0.6 1.3-1.1 1-0.2 1.1-0.4 0.8-1 0.4-0.6 0.9-0.3-0.4-0.5 0.7-1.6 1.2-1.1 0.3-1.1 0.1-0.4-0.7-0.5 0.5-0.1 0.9-1.6-0.3-0.8 0.4-0.2 0.5-0.6 0.5-1 0.2-0.5 1.1-1.5 0.9-0.1 0.6 0.3 0.7-0.7 2-0.6 0.7-0.9 0.1 0 0.5-0.9 0.6-0.3 0.7-0.8-0.7-0.2-1.1-0.2-2.1-0.6 0.8-0.8 1.2-1 0.8-0.3 0.8-0.5 0.4-0.4 1.1 0.1 1.6-0.5 1.1 0 0.8-0.9-0.1-1 0.6-0.2 0.6-1.1 1.9-0.6 0.2-0.4 0.8-0.2 1.2-0.8 0.6-0.4 1.1 0.2 0.4-0.7 2.4 0.2 0.4-0.9 1.2-0.3 1.3 0 1.3 0.4 0.5 0.5 1.3-0.8 0.8-1.5 0.7-0.7 0.8-0.4 0.7-1.1-0.6-0.9 0.6-0.2 0.8-0.8 0.4-0.5-1.2 0.6-2.4-0.4-1.8-0.6 0.1-0.6 0.7-2.2 1 0.1 0.8 0.6 1.4-0.8 0.4-0.2 0.5-1 0.2-0.7 0.7-0.2 0.9-1.3 0.9-1.3 1.2-0.1 0.9-0.8 0.7-1.2 1.4-0.7 0.1-1.6 0.9-0.4 0.9-0.5 0.1-0.6 0.9-1 0.3-0.4 0.5 0.9 0.8 0.4 1 0.7 0.6 0 0.6 0.9 0.6 0.6 0 0.8 0.4 0.2 1.2 0.5 1.2-0.9 1.3 0.1 0.8 0.6 0.6-0.4 0.5-0.6 0.1-1.4 1.1-0.5 0.8 0 0.4-1.2 1.9-0.2 0.6 0.1 0.8-0.5 1.8-0.4 0.2-0.9 1.6-1 0-0.7 1.1 0 0.6 0.5 1.4-0.1 0.6-0.5 0.2 0.3 1-0.7 0.7 0 0.6-1.3 1.4-0.1 1.5-1.2 0.5-0.9-0.5-0.6 0.2-0.8 3.5 0.3 1.6-0.5 0.7 0.1 1.3-0.4 0.6 0.8 0.5-1.6 1.4 0.1 1-0.6 0.8 0.4 0.8-0.4 0.6-0.2 1.2 0.3 0.7-1.3 0.3-0.7-0.3-0.7 0.5-0.8 0-0.9-0.6-0.2 0.7-0.7-0.3-0.7 0.1-0.6 0.6-1.4-1.4-1.4-3.8-1.2 2.6-0.5 1.8-0.8 1.8-1.1 0.5-0.5 0.6-0.6-0.3-0.2 0.9 0 0.9-0.3 1.3-0.8 0.3-1.3 0-0.1 0.8-0.6 1.8-0.6 0.1-0.1 0.1 0.1 0.3-0.1 0-0.2-0.2 0 0.2-0.5 0-0.1 0.1-0.1 0.1 0 0.1-0.3 0.4-0.3 0.3-0.1 0-0.7-0.7-0.2 0.1 0-0.4-0.1-0.5-0.5-0.7 0.1-2.2-1.5 0.1-2.2-0.1-0.6 0-2.8 0.1 1.7-4.2 0.3-1-0.6-1.1 0.1-0.7-0.9-0.9 0-1.6 0.1-2.2 0.2-1.4 0.3-1.1 0.1-0.9 0.4-1.4 1.2-1.8-0.5-0.2 0.4-0.7-0.1-0.8-0.4-0.9-0.1-0.9-0.8-0.1-0.4-0.6 0-0.9 0.2-0.4-0.1-1 2.3 0.1 1.2 1.1 0.6-0.1 1 1 0.7-0.3 1.1 0 1.5-0.4 0.3-1.4-0.2-1-1.2-0.3 0.4-0.7-0.4-0.5-0.8 0.4-0.4-1.1 0.3-1.2-0.3-0.2 0.9-0.3 0.5-0.6 0.5-1.1 0.1-0.8 1.5 0-0.1-1.3 1 0.4 1 0 1.3 0.5 0.8-1.3 0.4-0.1 0.2-0.7 0.5-0.3 2.4-1 1.1 0.2 0.8-0.7-1-0.5-0.3-0.6 0.2-0.7 0.8-0.7-0.3-0.8 0-0.9-0.8-0.1-0.9-1.5-0.6 0-0.6-0.5-0.9-1.1-0.5 0.2-0.3-0.8-1.5 0.5 0-1.1-0.3-0.9-0.9 0.3-0.1-0.6 0.4-0.6 1.4-0.7 0.8-0.9 0.6-1.8-0.7-0.1-0.4 0.7-0.7 0.2-0.7 0.4-0.9-0.8-0.2-1.4-2-0.6-0.6-1.4-0.5-0.7-1.1-0.2-0.2-0.8 0.5-0.4-0.9-0.8-1.5-0.2-1.1 0.8-1.1 0.1-1.3 0.5-1.1 0.1-0.4-0.3-0.5 0.7-1.4 1.1-0.5-1.6 0.3-1.3-0.4-1.5 0-1.1 1-1.5 0-0.7 1.5-1.2-0.1-0.3-1.4 0.1-0.7-0.3-0.2-1.1 0.4-0.8 0.8-0.7 0.4-0.1 1.8-1.6 1.6-1.8-1 0.4-1.1 0.1-1-0.3-0.7 0.1-0.4-0.4-1 0.5-0.6 0.7-1.3-0.1-1.4 0.6-0.6-0.2-1.5-0.1-0.4 0.6-1.6 0.4-0.2 0.6-0.7-1-0.8-0.1-0.5-1.1 0.3-1.5-2-0.8-1 1.2-0.4-0.2-0.6 0.8-1 0.4-0.3 1.1-0.1 2.9-1.7 1.9-0.7-0.3-1.3-1 0.7-0.2 0.2-0.8-0.4-0.8 0.2-1.4-0.4-0.1-0.8 0.2-0.9-0.3-0.1 1-0.5 1-0.5 0.5-0.6 0.2 0 0.6-0.6 0.8 0 0.8-0.6 0.3-0.5 1.2-1 0.7-1-0.5-2.1 0.6-0.6 0.3-0.9 1.3-1 1.9-0.7 0-1.1 0.9-1.2-0.6 0-0.9-0.3-0.5 0.8-2.5-1.7-0.3-1.1 0.7-1.9 0.2 0-0.8-0.6-0.1-0.9 1-0.7-0.1 0.4-1.2 0.5-0.3-0.5-0.7-1-0.2-0.6 0.1-0.3-1.8-1.4-0.3 0.1 1.1-1.2-1.5-0.5 0.4-1.7-0.2-0.8 0.2-0.6 1.3-1.3-0.3 0-1-0.9-0.4-1 0.1-0.3 0.5-1.7 0.7 0.1-0.7-1.7-0.8-0.3 0.7-0.6 0.4-1 1.1-0.2-0.4 0.5-0.8 0.1-1-1-1.5-1-0.7-0.7 0.6-1 0.4-1.1-0.9-1 0.1-1.2 0.8-0.2 0.6-1.3 0.4-2.5 0.3-0.7-0.1-2.7 0-0.5 0.6-0.1 0.1-0.2 0.4-0.3 0.2-0.1 0.2-0.2 0-0.3 0.1-0.2 0.2-0.2 0.4-0.8 0.2-0.5 0.2 0 0.7 0.1 0 0.2 0.2-0.4 0.6-0.5 0.2 0.2 0.1-1.2 0.6-0.6 0-0.1 0.2-0.1 0.2 0.3 0.2 0 1 0.1 0.4-1.4 1.3-0.5-0.2-0.2 0.6 0.6 0.8 0.2 0.2 0.5 0.5 0.3 0.4 0.2 0.7 1.1 0.8 0.7 0.6 0.2 0 0.4 0.5-0.4 0.8-0.4 0.1-0.5-0.2-0.2 0.6-1.9 0.5-1.1 0.2-0.3 0.3-0.2 0.2 0.5-2.4 0-0.9-0.4-1-0.7-1 0-1-0.5-0.1-0.3-0.9 0.5-0.8-0.5-1.9-0.5-0.4 0.5-0.7 0-0.6 0.8-1.4 1-1.1 0.1-1-1.8 0.1 0.3-0.8 1.1-0.3-0.7-0.6-0.2-0.7-0.7-0.2-0.4-1.2-1-1.8 0.1-0.4-1-0.5 0.4-0.4-0.8-1.3-0.9 0.1-0.1-0.4 0.5-0.3 0-0.1-0.6 0-0.3 0.1-0.2-0.1-0.2-0.5 0.5 0 0.2-0.1-0.1-0.5 0.4 0 0-0.5-0.3 0.1-0.6 0 0-0.1 0.3 0 0.2-0.4 0.2-0.1 0.3-0.3-0.4-0.3 0-0.3-0.2-0.1-0.3-0.1 0.3-0.2 0.3 0.2 0.5 0 0-0.2-0.4-0.9-0.2-0.5 0.2-0.2 0 0.4 0.8 0.2 0.4 0.1 0.1-0.1-0.3-1.2 0.4 0.2 0.6-0.5 0.1-0.9 1.5-0.5 1-0.6-0.4-1 0.4-0.9 0.4-0.6 0.1-0.6-0.6-0.9 0-1.3 0.3-0.3 0.1-1.5 0.4-0.6 0-1.1-0.5 0-0.2-0.7 0.6-0.4-0.2-0.5 0.1-1.1-0.5-0.7 0.2-1.3 0.9 0.5 2.4 0 1.5-0.4 1.8 0.2 2.5-0.8 2-0.8-0.2-1.3 0.5-1.1 1-0.9 1.3 0.1 0.9 0.2 0.7-0.1 1.2-0.9 0.3-0.8 1.9-0.2 0.4 0.1 1.1 1 3.8 2.8 2.2 0.3 0.7 0.7 1-0.3 0.7 0.5 1.2 0 0.2-0.3 2.1 0.1 2.3-0.2 0.9 0 3.4-0.4 2 0.4 1.2-1.5 1.4 0.4 1.7-0.1 2.8 0.2 1.1 0.8 1.4 0.2 1.5-0.9 0.8-1.3 0.2 0 2.4 1.7 0.5 0.1 3.3-0.6 1.2-0.6 1.8 0.6 0.7-0.3 1 0 2.5-1.5 1.1-0.9 0.7-1.4 1.5-0.2 1.9 1.1 1.1 1.2 1.1 0.2 1.3 0.2 1.4-0.8 0.4-1 0.4 0.1 2.6 0 2-0.8 0.7 0.4 1-0.3-0.1-0.6 1.8-0.4 1.6 0.4 0.4-0.7 0.4 0 0.7-0.7 2-0.2 1.7 0.3 1.1-0.1 2-1 0-0.9 0.5-1 1.9 0.4 1.9-0.2 2.3 0.7 1.2 0.2 1.5 0.9 0 0.8 2.8 1.3 0.7 0.5 1.7-0.3 0.8 0.4 0.6-0.5 2.5-0.4 1.3-0.4 1.6-0.3 2.7-0.3 3.4 0.4 0.7 0.6 0.8 0 1.2-0.4 2-0.2 1.4-0.4 1.7-0.3 1.5-1.8 1.7-0.9 1.4-1 0.9-0.4-0.3-0.8-0.1-0.7-0.6-0.6 0-0.6 0.7-0.8 0.4-0.1 1-1 1.1-1.6 1.3-1.3 0.6-0.8 1.5-1.5 2.1-1.1 0.8-1.6 2.6-2.4-0.1-0.4 1.3-0.8 2.1-0.9 0-1.4-1.1-0.7-0.1-1-0.3-0.1 0.7-1.1 1-0.1-0.3 0.8 1.1 0.9 0.9 0.1 1.8 0.5 0.7-0.5 0.6 0.1 0.6-0.6 1.1 1.2 1.6-0.3 0.9-0.7 1.6-0.4 0.6-0.6 1.6-0.3 0.3-0.4 1.7-1 0.8-0.1 0.8 0.2 1.8-1.3 0.8 0.1 1-0.6 0.4-1.1 0.8-0.1 1.6-0.6 1.9-0.5 1.8-0.3 0.4-0.5 6.3-2.2 2.8-0.9 2.3 1.1 4.5-1.5 0.9-1.2 0.7-0.4 0.3-0.7 0.5 0 0.7-0.6 7.4-0.8 5.2 0.4-0.8 1 0.1 0.6-1.1 1.5-1.6 1.7-0.9 0.3-0.9 1-0.8 1.3-0.7 0.7 0.2 0.6-1 0.4 0.5 0.4 0 0.8 0.7 0.3-0.4 0.5 0 0.7 0.7 0.5-0.5 0.6 0.4 1 0.9 0.2-0.1 0.8 1.4 1.1 0.6 0 0 2-0.1 1.1-0.6 0.4-0.3 1.2 0.5 0.1 0.6-0.6 0.6 1.2 0.4-1.1 0.7-0.2 1.4 0.4 0.9 1.2 0.5 1.1-0.7 0.9-0.8 0.6-0.3 0.8-1.9 0.9-0.3 1.1-0.9-0.1-0.4-1.1-1.7 0.6-0.9 0-1.8 0.5-0.2 0.3-1.4 0.1-1.6 0.7-1.6 0.3-0.5-0.8-1.4-0.8-1.6 1-1 1.4 0.4 0.7-0.1 1.4-0.3 0.7-1.3 0.2-0.5 0.5-1.3 0.2-2 1.2-1.1 1 0 0.2-1 0.8-0.3-0.5-0.9 0.3-0.6-0.3z" fill="#818CF8" opacity="0.5" stroke="#818CF8" stroke-width="1.5" />
  <text x="670" y="510" text-anchor="middle" class="state-label" fill="#6366F1" font-size="12">JH</text>
  <text x="660" y="470" text-anchor="middle" class="state-label" fill="#818CF8" font-size="12">BR</text>
  <text x="710" y="520" text-anchor="middle" class="state-label" fill="#8B5CF6" font-size="12">WB</text>
  <text x="660" y="560" text-anchor="middle" class="state-label" fill="#A78BFA" font-size="12">OD</text>
  <text x="610" y="430" text-anchor="middle" class="state-label" fill="#818CF8" font-size="12">UP</text>
  <text x="615" y="530" text-anchor="middle" class="state-label" fill="#A78BFA" font-size="12">CG</text>
  <text x="560" y="470" text-anchor="middle" class="state-label" fill="#8B5CF6" font-size="12">MP</text>
  <text x="780" y="420" text-anchor="middle" class="state-label" fill="#818CF8" font-size="12">AS</text>

  <!-- Ranchi HQ -->
  <circle cx="670" cy="500" r="4" fill="#6366F1" stroke="white" stroke-width="2" />
  <circle cx="670" cy="500" r="8" fill="none" stroke="#6366F1" stroke-width="1" opacity="0.3" />
  <circle cx="670" cy="500" r="14" fill="none" stroke="#6366F1" stroke-width="0.5" opacity="0.15" />
</svg>